<?xml version="1.0" encoding="UTF-8"?>
<svg width="11px" height="10px" viewBox="0 0 11 10" version="1.1" xmlns="http://www.w3.org/2000/svg" xmlns:xlink="http://www.w3.org/1999/xlink">
    <!-- Generator: Sketch 52.6 (67491) - http://www.bohemiancoding.com/sketch -->
    <title>bottom-quote</title>
    <desc>Created with Sketch.</desc>
    <g id="Page-1" stroke="none" stroke-width="1" fill="none" fill-rule="evenodd">
        <g id="About-Me" transform="translate(-792.000000, -1469.000000)" fill="#000000">
            <g id="Group-18" transform="translate(520.000000, 1244.000000)">
                <g id="Group-17" transform="translate(28.517442, 36.000000)">
                    <path d="M248.916837,189.912 L248.916837,192.696 C248.916837,193.752005 248.728839,194.699996 248.352837,195.54 C247.976835,196.380004 247.332842,197.247996 246.420837,198.144 L244.812837,196.848 C245.260839,196.383998 245.612836,195.956002 245.868837,195.564 C246.124838,195.171998 246.308837,194.776002 246.420837,194.376 L244.380837,194.376 L244.380837,189.912 L248.916837,189.912 Z M254.340837,189.912 L254.340837,192.696 C254.340837,193.752005 254.152839,194.699996 253.776837,195.54 C253.400835,196.380004 252.756842,197.247996 251.844837,198.144 L250.236837,196.848 C250.684839,196.383998 251.036836,195.956002 251.292837,195.564 C251.548838,195.171998 251.732837,194.776002 251.844837,194.376 L249.804837,194.376 L249.804837,189.912 L254.340837,189.912 Z" id="bottom-quote"></path>
                </g>
            </g>
        </g>
    </g>
</svg>