<?xml version="1.0" encoding="UTF-8"?>
<svg width="15px" height="15px" viewBox="0 0 15 15" version="1.1" xmlns="http://www.w3.org/2000/svg" xmlns:xlink="http://www.w3.org/1999/xlink">
    <!-- Generator: Sketch 61.2 (89653) - https://sketch.com -->
    <title>close-icon</title>
    <desc>Created with Sketch.</desc>
    <g id="Page-1" stroke="none" stroke-width="1" fill="none" fill-rule="evenodd">
        <g id="mobile-copy" transform="translate(-28.000000, -31.000000)" fill="#000000" fill-rule="nonzero">
            <g id="Group-3" transform="translate(15.000000, 18.000000)">
                <g id="cancel-(1)" transform="translate(13.000000, 13.000000)">
                    <path d="M9.15207317,7.5 L14.7603659,1.89146341 C14.9146341,1.73707317 14.9997561,1.53109756 15,1.31146341 C15,1.09170732 14.914878,0.885487805 14.7603659,0.731341463 L14.2689024,0.24 C14.1143902,0.0852439024 13.9084146,0.000487804878 13.6885366,0.000487804878 C13.4690244,0.000487804878 13.2630488,0.0852439024 13.1085366,0.24 L7.5002439,5.84817073 L1.89170732,0.24 C1.73743902,0.0852439024 1.53134146,0.000487804878 1.31158537,0.000487804878 C1.09207317,0.000487804878 0.88597561,0.0852439024 0.731707317,0.24 L0.24,0.731341463 C-0.08,1.05134146 -0.08,1.57182927 0.24,1.89146341 L5.84841463,7.5 L0.24,13.1082927 C0.0856097561,13.2629268 0.000609756098,13.4689024 0.000609756098,13.6885366 C0.000609756098,13.9081707 0.0856097561,14.1141463 0.24,14.2686585 L0.731585366,14.76 C0.885853659,14.9146341 1.09207317,14.9995122 1.31146341,14.9995122 C1.53121951,14.9995122 1.73731707,14.9146341 1.89158537,14.76 L7.50012195,9.15170732 L13.1084146,14.76 C13.2629268,14.9146341 13.4689024,14.9995122 13.6884146,14.9995122 L13.6886585,14.9995122 C13.9082927,14.9995122 14.1142683,14.9146341 14.2687805,14.76 L14.7602439,14.2686585 C14.9145122,14.1142683 14.9996341,13.9081707 14.9996341,13.6885366 C14.9996341,13.4689024 14.9145122,13.2629268 14.7602439,13.1084146 L9.15207317,7.5 Z" id="close-icon"></path>
                </g>
            </g>
        </g>
    </g>
</svg>