<?xml version="1.0" encoding="UTF-8"?>
<svg width="14px" height="11px" viewBox="0 0 14 11" version="1.1" xmlns="http://www.w3.org/2000/svg" xmlns:xlink="http://www.w3.org/1999/xlink">
    <!-- Generator: Sketch 52.6 (67491) - http://www.bohemiancoding.com/sketch -->
    <title>email-icon</title>
    <desc>Created with Sketch.</desc>
    <g id="Page-1" stroke="none" stroke-width="1" fill="none" fill-rule="evenodd">
        <g id="Home-Page-Copy" transform="translate(-1309.000000, -33.000000)" fill="#000000">
            <g id="Group-2">
                <g id="Group-3" transform="translate(1296.000000, 18.000000)">
                    <g id="email-icon" transform="translate(20.000000, 20.500000) scale(-1, 1) translate(-20.000000, -20.500000) translate(13.000000, 15.000000)">
                        <path d="M12.7380642,10.8888889 L1.2620626,10.8888889 C0.948042847,10.8888889 0.675748657,10.7863051 0.444444444,10.5837472 L4.40340159,6.66666667 C4.50242688,6.73700483 4.5940202,6.80272572 4.67660892,6.86262483 C4.97297458,7.07855774 5.21325803,7.247013 5.39783975,7.36773969 C5.58224392,7.48874242 5.82782868,7.61207888 6.13456866,7.738 C6.44130863,7.86409679 6.72709705,7.92690679 6.99223828,7.92690679 L7,7.92690679 L7.00776172,7.92690679 C7.27287759,7.92690679 7.558666,7.86407169 7.86543134,7.738 C8.17199376,7.61207888 8.41757852,7.48874242 8.60216025,7.36773969 C8.78676734,7.247013 9.02717761,7.07853264 9.32339108,6.86262483 C9.41034259,6.80041709 9.50239249,6.73499732 9.59735937,6.66772061 L13.5555556,10.5837472 C13.324226,10.7863051 13.0521093,10.8888889 12.7380642,10.8888889 Z M0.802592197,4.23140688 C1.92775164,4.9788766 2.84424281,5.59427936 3.55555556,6.07973793 L2.17603713e-14,9.55555556 L2.17603713e-14,3.55555556 C0.233045662,3.8093536 0.500731499,4.03467107 0.802592197,4.23140688 Z M13.2051296,4.2313898 C13.507111,4.02940269 13.7720334,3.80424254 14,3.55555556 L14,9.55555556 L10.4444444,6.08106402 C11.2022557,5.56390324 12.1224496,4.94745468 13.2051296,4.2313898 Z M12.7498879,1.33226763e-14 C13.0884313,1.33226763e-14 13.3814764,0.120468006 13.6289468,0.361278948 C13.8761377,0.602390059 14,0.89187848 14,1.23019446 C14,1.63512305 13.8722487,2.02211652 13.6174324,2.39104979 C13.3621586,2.75998305 13.0445343,3.07533608 12.664356,3.3366586 C11.400264,4.20007101 10.4463742,4.85191398 9.79867063,5.29478899 C9.44271581,5.53802631 9.17796107,5.71915355 9.00806661,5.83549423 C8.98287729,5.85292907 8.9435301,5.88046962 8.8912451,5.91739046 C8.83494405,5.95703784 8.76369717,6.00756637 8.67597937,6.07002663 C8.50669494,6.19051965 8.36608211,6.28787461 8.25409004,6.3622666 C8.14189463,6.43650851 8.00656876,6.51980554 7.84775658,6.61210764 C7.6887919,6.70443476 7.53910481,6.77359881 7.3985174,6.81969983 C7.25785373,6.86577584 7.1276369,6.88888889 7.00789231,6.88888889 L7.00011438,6.88888889 L6.99233645,6.88888889 C6.87256645,6.88888889 6.74237503,6.86577584 6.60173678,6.81969983 C6.46112395,6.77359881 6.31130978,6.70428468 6.15247218,6.61210764 C5.9935075,6.51980554 5.8580037,6.43668361 5.74616414,6.3622666 C5.63417207,6.28787461 5.49355924,6.19049463 5.32430023,6.07002663 C5.2364045,6.00756637 5.16515762,5.95706286 5.10885657,5.91726539 C5.05659699,5.88049463 5.01722438,5.85277899 4.99218757,5.83549423 C4.77410043,5.68455903 4.50995572,5.50268135 4.20366783,5.29266279 C3.8443324,5.04602356 3.42617954,4.76021222 2.94534568,4.43230211 C2.05461983,3.82500928 1.52073843,3.45975309 1.34370149,3.3366586 C1.02076476,3.12141209 0.716027372,2.82549504 0.429641841,2.44875736 C0.14325631,2.0718696 0,1.72204712 0,1.39918987 C0,0.999489228 0.107950595,0.666201081 0.324207637,0.399700637 C0.540286752,0.133325264 0.848735178,1.33226763e-14 1.24993419,1.33226763e-14 L12.7498879,1.33226763e-14 Z" id="Combined-Shape"></path>
                    </g>
                </g>
            </g>
        </g>
    </g>
</svg>