<?xml version="1.0" encoding="UTF-8"?>
<svg width="131px" height="15px" viewBox="0 0 131 15" version="1.1" xmlns="http://www.w3.org/2000/svg" xmlns:xlink="http://www.w3.org/1999/xlink">
    <!-- Generator: Sketch 52.6 (67491) - http://www.bohemiancoding.com/sketch -->
    <title>email</title>
    <desc>Created with Sketch.</desc>
    <g id="Page-1" stroke="none" stroke-width="1" fill="none" fill-rule="evenodd">
        <path d="M0.295,11 L0.295,3.944 L1.695,3.944 L1.695,11 L0.295,11 Z M0.169,0.864 L1.807,0.864 L1.807,2.348 L0.169,2.348 L0.169,0.864 Z M3.767,11 L3.767,0.696 L5.167,0.696 L5.167,11 L3.767,11 Z M13.693,0.696 L13.693,11 L12.293,11 L12.293,9.796 C12.0876656,10.2160021 11.782002,10.5379989 11.376,10.762 C10.969998,10.9860011 10.496336,11.098 9.955,11.098 C9.3483303,11.098 8.80700238,10.9440015 8.331,10.636 C7.85499762,10.3279985 7.48400133,9.89633611 7.218,9.341 C6.95199867,8.78566389 6.819,8.14400364 6.819,7.416 C6.819,6.68799636 6.94966536,6.04866942 7.211,5.498 C7.47233464,4.94733058 7.83866431,4.52266816 8.31,4.224 C8.78133569,3.92533184 9.32966354,3.776 9.955,3.776 C10.4870027,3.776 10.955998,3.88799888 11.362,4.112 C11.768002,4.33600112 12.0736656,4.65333128 12.279,5.064 L12.279,0.696 L13.693,0.696 Z M10.277,9.978 C10.9210032,9.978 11.4179983,9.75633555 11.768,9.313 C12.1180017,8.86966445 12.293,8.24667068 12.293,7.444 C12.293,6.64132932 12.1180017,6.01833555 11.768,5.575 C11.4179983,5.13166445 10.9256698,4.91 10.291,4.91 C9.64699678,4.91 9.14533513,5.12933114 8.786,5.568 C8.42666487,6.00666886 8.247,6.6226627 8.247,7.416 C8.247,8.21867068 8.42666487,8.84633107 8.786,9.299 C9.14533513,9.75166893 9.64233016,9.978 10.277,9.978 Z M15.765,11 L15.765,3.944 L17.165,3.944 L17.165,11 L15.765,11 Z M15.639,0.864 L17.277,0.864 L17.277,2.348 L15.639,2.348 L15.639,0.864 Z M25.817,11 L24.011,11 L20.637,7.668 L20.637,11 L19.237,11 L19.237,0.696 L20.637,0.696 L20.637,7.136 L23.773,3.958 L25.523,3.958 L22.149,7.346 L25.817,11 Z M29.709,11.098 C29.0183299,11.098 28.4116693,10.9486682 27.889,10.65 C27.3663307,10.3513318 26.9626681,9.92666942 26.678,9.376 C26.3933319,8.82533058 26.251,8.18133702 26.251,7.444 C26.251,6.70666298 26.3933319,6.06033611 26.678,5.505 C26.9626681,4.94966389 27.3663307,4.52266816 27.889,4.224 C28.4116693,3.92533184 29.0183299,3.776 29.709,3.776 C30.3903367,3.776 30.9923307,3.92533184 31.515,4.224 C32.0376693,4.52266816 32.4413319,4.94966389 32.726,5.505 C33.0106681,6.06033611 33.153,6.70666298 33.153,7.444 C33.153,8.18133702 33.0106681,8.82533058 32.726,9.376 C32.4413319,9.92666942 32.0376693,10.3513318 31.515,10.65 C30.9923307,10.9486682 30.3903367,11.098 29.709,11.098 Z M29.695,9.978 C30.3483366,9.978 30.8476649,9.76333548 31.193,9.334 C31.5383351,8.90466452 31.711,8.27467082 31.711,7.444 C31.711,6.63199594 31.5360017,6.00666886 31.186,5.568 C30.8359983,5.12933114 30.3436698,4.91 29.709,4.91 C29.0649968,4.91 28.5656684,5.12933114 28.211,5.568 C27.8563316,6.00666886 27.679,6.63199594 27.679,7.444 C27.679,8.27467082 27.8539983,8.90466452 28.204,9.334 C28.5540017,9.76333548 29.0509968,9.978 29.695,9.978 Z M40.489,13.17 C39.2569938,13.17 38.1836712,12.9203358 37.269,12.421 C36.3543288,11.9216642 35.6520024,11.2170045 35.162,10.307 C34.6719976,9.39699545 34.427,8.34933926 34.427,7.164 C34.427,5.91332708 34.690664,4.81667138 35.218,3.874 C35.745336,2.93132862 36.4686621,2.20800252 37.388,1.704 C38.3073379,1.19999748 39.3409943,0.948 40.489,0.948 C41.7023394,0.948 42.745329,1.19066424 43.618,1.676 C44.490671,2.16133576 45.1486645,2.8006627 45.592,3.594 C46.0353356,4.3873373 46.257,5.24132876 46.257,6.156 C46.257,7.05200448 46.121668,7.79399706 45.851,8.382 C45.580332,8.97000294 45.2280022,9.40166529 44.794,9.677 C44.3599978,9.95233471 43.8910025,10.09 43.387,10.09 C42.8829975,10.09 42.4863348,9.98266774 42.197,9.768 C41.9076652,9.55333226 41.7396669,9.25000196 41.693,8.858 L41.665,8.858 C41.1516641,9.67933744 40.4470045,10.09 39.551,10.09 C38.9069968,10.09 38.3913353,9.86833555 38.004,9.425 C37.6166647,8.98166445 37.423,8.37733716 37.423,7.612 C37.423,6.9586634 37.5466654,6.3520028 37.794,5.792 C38.0413346,5.2319972 38.3913311,4.78400168 38.844,4.448 C39.2966689,4.11199832 39.8169971,3.944 40.405,3.944 C40.8343355,3.944 41.2099984,4.04433233 41.532,4.245 C41.8540016,4.44566767 42.0663328,4.7093317 42.169,5.036 L42.197,5.036 L42.351,4.098 L43.443,4.098 L42.799,7.794 C42.7616665,7.9806676 42.743,8.16266578 42.743,8.34 C42.743,8.63866816 42.8129993,8.8579993 42.953,8.998 C43.0930007,9.1380007 43.3029986,9.208 43.583,9.208 C43.8256679,9.208 44.0706654,9.10766767 44.318,8.907 C44.5653346,8.70633233 44.7753325,8.37733562 44.948,7.92 C45.1206675,7.46266438 45.207,6.87467026 45.207,6.156 C45.207,5.39999622 45.0320018,4.70000322 44.682,4.056 C44.3319982,3.41199678 43.8023369,2.89633527 43.093,2.509 C42.3836631,2.12166473 41.5156718,1.928 40.489,1.928 C39.5463286,1.928 38.6993371,2.1379979 37.948,2.558 C37.1966629,2.9780021 36.6040022,3.58232939 36.17,4.371 C35.7359978,5.15967061 35.519,6.0906613 35.519,7.164 C35.519,8.18133842 35.7173314,9.06799622 36.114,9.824 C36.5106686,10.5800038 37.0823296,11.1656646 37.829,11.581 C38.5756704,11.9963354 39.4623282,12.204 40.489,12.204 C41.2543372,12.204 41.9146639,12.099001 42.47,11.889 C43.0253361,11.678999 43.4476652,11.3826686 43.737,11 L45.179,11 C44.786998,11.6720034 44.1850041,12.2016647 43.373,12.589 C42.5609959,12.9763353 41.5996722,13.17 40.489,13.17 Z M39.789,9.208 C40.2276689,9.208 40.6079984,9.07266802 40.93,8.802 C41.2520016,8.53133198 41.4969992,8.18133548 41.665,7.752 C41.8330008,7.32266452 41.917,6.87000238 41.917,6.394 C41.917,5.88999748 41.7980012,5.50733464 41.56,5.246 C41.3219988,4.98466536 40.9930021,4.854 40.573,4.854 C40.1529979,4.854 39.7866682,4.98699867 39.474,5.253 C39.1613318,5.51900133 38.9233342,5.85966459 38.76,6.275 C38.5966659,6.69033541 38.515,7.12666438 38.515,7.584 C38.515,8.0973359 38.6339988,8.49633191 38.872,8.781 C39.1100012,9.06566809 39.4156648,9.208 39.789,9.208 Z M47.951,11 L47.951,3.944 L49.351,3.944 L49.351,11 L47.951,11 Z M47.825,0.864 L49.463,0.864 L49.463,2.348 L47.825,2.348 L47.825,0.864 Z M51.423,11 L51.423,0.696 L52.823,0.696 L52.823,11 L51.423,11 Z M61.349,0.696 L61.349,11 L59.949,11 L59.949,9.796 C59.7436656,10.2160021 59.438002,10.5379989 59.032,10.762 C58.625998,10.9860011 58.152336,11.098 57.611,11.098 C57.0043303,11.098 56.4630024,10.9440015 55.987,10.636 C55.5109976,10.3279985 55.1400013,9.89633611 54.874,9.341 C54.6079987,8.78566389 54.475,8.14400364 54.475,7.416 C54.475,6.68799636 54.6056654,6.04866942 54.867,5.498 C55.1283346,4.94733058 55.4946643,4.52266816 55.966,4.224 C56.4373357,3.92533184 56.9856635,3.776 57.611,3.776 C58.1430027,3.776 58.611998,3.88799888 59.018,4.112 C59.424002,4.33600112 59.7296656,4.65333128 59.935,5.064 L59.935,0.696 L61.349,0.696 Z M57.933,9.978 C58.5770032,9.978 59.0739983,9.75633555 59.424,9.313 C59.7740018,8.86966445 59.949,8.24667068 59.949,7.444 C59.949,6.64132932 59.7740018,6.01833555 59.424,5.575 C59.0739983,5.13166445 58.5816698,4.91 57.947,4.91 C57.3029968,4.91 56.8013351,5.12933114 56.442,5.568 C56.0826649,6.00666886 55.903,6.6226627 55.903,7.416 C55.903,8.21867068 56.0826649,8.84633107 56.442,9.299 C56.8013351,9.75166893 57.2983302,9.978 57.933,9.978 Z M63.421,11 L63.421,3.944 L64.821,3.944 L64.821,11 L63.421,11 Z M63.295,0.864 L64.933,0.864 L64.933,2.348 L63.295,2.348 L63.295,0.864 Z M72.913,7.5 L67.873,7.5 C67.9196669,9.15200826 68.6709927,9.978 70.127,9.978 C70.9390041,9.978 71.6809966,9.71200266 72.353,9.18 L72.787,10.188 C72.4696651,10.4680014 72.0660024,10.6896658 71.576,10.853 C71.0859976,11.0163341 70.5936691,11.098 70.099,11.098 C68.969661,11.098 68.0830032,10.7736699 67.439,10.125 C66.7949968,9.47633009 66.473,8.58733898 66.473,7.458 C66.473,6.73932974 66.6153319,6.1000028 66.9,5.54 C67.1846681,4.9799972 67.5836641,4.54600154 68.097,4.238 C68.6103359,3.92999846 69.1936634,3.776 69.847,3.776 C70.7990048,3.776 71.5479973,4.08399692 72.094,4.7 C72.6400027,5.31600308 72.913,6.16999454 72.913,7.262 L72.913,7.5 Z M69.875,4.826 C69.3429973,4.826 68.9090017,4.98466508 68.573,5.302 C68.2369983,5.61933492 68.0223338,6.07199706 67.929,6.66 L71.667,6.66 C71.6109997,6.06266368 71.4290015,5.60766823 71.121,5.295 C70.8129985,4.98233177 70.3976693,4.826 69.875,4.826 Z M77.001,11.098 C75.7689938,11.098 74.7983369,10.7993363 74.089,10.202 L74.509,9.18 C75.246337,9.7400028 76.0909952,10.02 77.043,10.02 C77.5283358,10.02 77.8969987,9.93833415 78.149,9.775 C78.4010013,9.61166585 78.527,9.38066816 78.527,9.082 C78.527,8.82999874 78.4406675,8.63166739 78.268,8.487 C78.0953325,8.34233261 77.8036687,8.21866718 77.393,8.116 L76.217,7.836 C75.6009969,7.70533268 75.1320016,7.47433499 74.81,7.143 C74.4879984,6.81166501 74.327,6.39866914 74.327,5.904 C74.327,5.26933016 74.5813308,4.75600196 75.09,4.364 C75.5986692,3.97199804 76.2729958,3.776 77.113,3.776 C77.6170025,3.776 78.0953311,3.85533254 78.548,4.014 C79.0006689,4.17266746 79.3856651,4.39666522 79.703,4.686 L79.269,5.68 C78.5876633,5.13866396 77.8690038,4.868 77.113,4.868 C76.6556644,4.868 76.3010013,4.95433247 76.049,5.127 C75.7969987,5.29966753 75.671,5.53999846 75.671,5.848 C75.671,6.09066788 75.7503325,6.28666592 75.909,6.436 C76.0676675,6.58533408 76.3196649,6.70199958 76.665,6.786 L77.869,7.08 C78.5410034,7.22933408 79.0379984,7.46499839 79.36,7.787 C79.6820016,8.10900161 79.843,8.5266641 79.843,9.04 C79.843,9.67466984 79.5886692,10.1763315 79.08,10.545 C78.5713308,10.9136685 77.8783377,11.098 77.001,11.098 Z M81.509,11 L81.509,3.944 L82.909,3.944 L82.909,11 L81.509,11 Z M81.383,0.864 L83.021,0.864 L83.021,2.348 L81.383,2.348 L81.383,0.864 Z M91.491,3.944 L91.491,10.874 C91.491,11.9473387 91.2086695,12.7569973 90.644,13.303 C90.0793305,13.8490027 89.2416722,14.122 88.131,14.122 C87.0576613,14.122 86.1196707,13.888669 85.317,13.422 L85.555,12.316 C85.9936689,12.5493345 86.415998,12.7219994 86.822,12.834 C87.228002,12.9460006 87.6596644,13.002 88.117,13.002 C89.4330066,13.002 90.091,12.3300067 90.091,10.986 L90.091,9.46 C89.8763323,9.87066872 89.5636687,10.1949988 89.153,10.433 C88.7423313,10.6710012 88.266336,10.79 87.725,10.79 C87.1089969,10.79 86.5606691,10.6453348 86.08,10.356 C85.5993309,10.0666652 85.2260013,9.65600266 84.96,9.124 C84.6939987,8.59199734 84.561,7.98067012 84.561,7.29 C84.561,6.59932988 84.6939987,5.98800266 84.96,5.456 C85.2260013,4.92399734 85.5993309,4.51100147 86.08,4.217 C86.5606691,3.92299853 87.1089969,3.776 87.725,3.776 C88.266336,3.776 88.7423313,3.89033219 89.153,4.119 C89.5636687,4.34766781 89.8763323,4.6719979 90.091,5.092 L90.091,3.944 L91.491,3.944 Z M88.047,9.656 C88.6816698,9.656 89.1809982,9.4460021 89.545,9.026 C89.9090018,8.6059979 90.091,8.02733702 90.091,7.29 C90.091,6.55266298 89.9113351,5.97166879 89.552,5.547 C89.1926649,5.12233121 88.6910032,4.91 88.047,4.91 C87.4123302,4.91 86.9106685,5.12233121 86.542,5.547 C86.1733315,5.97166879 85.989,6.55266298 85.989,7.29 C85.989,8.01800364 86.1733315,8.59433121 86.542,9.019 C86.9106685,9.44366879 87.4123302,9.656 88.047,9.656 Z M97.315,3.776 C99.0043418,3.776 99.849,4.71865724 99.849,6.604 L99.849,11 L98.435,11 L98.435,6.688 C98.435,6.07199692 98.3160012,5.6240014 98.078,5.344 C97.8399988,5.0639986 97.4596693,4.924 96.937,4.924 C96.3396637,4.924 95.8613351,5.1106648 95.502,5.484 C95.1426649,5.8573352 94.963,6.35666354 94.963,6.982 L94.963,11 L93.563,11 L93.563,5.932 C93.563,5.19466298 93.525667,4.53200294 93.451,3.944 L94.767,3.944 L94.893,5.162 C95.1170011,4.71399776 95.4413312,4.37100119 95.866,4.133 C96.2906688,3.89499881 96.773664,3.776 97.315,3.776 Z M101.669,9.32 L103.349,9.32 L103.349,11 L101.669,11 L101.669,9.32 Z M108.291,11.098 C107.581663,11.098 106.963336,10.9486682 106.436,10.65 C105.908664,10.3513318 105.505001,9.92900273 105.225,9.383 C104.944999,8.83699727 104.805,8.20000364 104.805,7.472 C104.805,6.74399636 104.951999,6.1000028 105.246,5.54 C105.540001,4.9799972 105.952997,4.54600154 106.485,4.238 C107.017003,3.92999846 107.637663,3.776 108.347,3.776 C108.841669,3.776 109.317664,3.85766585 109.775,4.021 C110.232336,4.18433415 110.600999,4.4059986 110.881,4.686 L110.447,5.708 C109.78433,5.18533072 109.117003,4.924 108.445,4.924 C107.763663,4.924 107.231669,5.14566445 106.849,5.589 C106.466331,6.03233555 106.275,6.65532932 106.275,7.458 C106.275,8.26067068 106.466331,8.87899783 106.849,9.313 C107.231669,9.74700217 107.763663,9.964 108.445,9.964 C109.13567,9.964 109.802997,9.70266928 110.447,9.18 L110.881,10.202 C110.582332,10.4820014 110.202002,10.7013325 109.74,10.86 C109.277998,11.0186675 108.795003,11.098 108.291,11.098 Z M115.249,11.098 C114.55833,11.098 113.951669,10.9486682 113.429,10.65 C112.906331,10.3513318 112.502668,9.92666942 112.218,9.376 C111.933332,8.82533058 111.791,8.18133702 111.791,7.444 C111.791,6.70666298 111.933332,6.06033611 112.218,5.505 C112.502668,4.94966389 112.906331,4.52266816 113.429,4.224 C113.951669,3.92533184 114.55833,3.776 115.249,3.776 C115.930337,3.776 116.532331,3.92533184 117.055,4.224 C117.577669,4.52266816 117.981332,4.94966389 118.266,5.505 C118.550668,6.06033611 118.693,6.70666298 118.693,7.444 C118.693,8.18133702 118.550668,8.82533058 118.266,9.376 C117.981332,9.92666942 117.577669,10.3513318 117.055,10.65 C116.532331,10.9486682 115.930337,11.098 115.249,11.098 Z M115.235,9.978 C115.888337,9.978 116.387665,9.76333548 116.733,9.334 C117.078335,8.90466452 117.251,8.27467082 117.251,7.444 C117.251,6.63199594 117.076002,6.00666886 116.726,5.568 C116.375998,5.12933114 115.88367,4.91 115.249,4.91 C114.604997,4.91 114.105668,5.12933114 113.751,5.568 C113.396332,6.00666886 113.219,6.63199594 113.219,7.444 C113.219,8.27467082 113.393998,8.90466452 113.744,9.334 C114.094002,9.76333548 114.590997,9.978 115.235,9.978 Z M128.395,3.776 C129.963008,3.776 130.747,4.71865724 130.747,6.604 L130.747,11 L129.333,11 L129.333,6.674 C129.333,6.0673303 129.228001,5.6240014 129.018,5.344 C128.807999,5.0639986 128.469669,4.924 128.003,4.924 C127.461664,4.924 127.034668,5.1106648 126.722,5.484 C126.409332,5.8573352 126.253,6.36599678 126.253,7.01 L126.253,11 L124.839,11 L124.839,6.674 C124.839,6.0673303 124.734001,5.6240014 124.524,5.344 C124.313999,5.0639986 123.975669,4.924 123.509,4.924 C122.967664,4.924 122.538335,5.1106648 122.221,5.484 C121.903665,5.8573352 121.745,6.36599678 121.745,7.01 L121.745,11 L120.345,11 L120.345,5.932 C120.345,5.19466298 120.307667,4.53200294 120.233,3.944 L121.549,3.944 L121.675,5.12 C121.880334,4.69066452 122.174331,4.3593345 122.557,4.126 C122.939669,3.8926655 123.387664,3.776 123.901,3.776 C124.993005,3.776 125.706998,4.22866214 126.043,5.134 C126.257668,4.7139979 126.572665,4.38266788 126.988,4.14 C127.403335,3.89733212 127.872331,3.776 128.395,3.776 Z" id="email" fill="#000000"></path>
    </g>
</svg>