<?xml version="1.0" encoding="UTF-8"?>
<svg width="90px" height="23px" viewBox="0 0 90 23" version="1.1" xmlns="http://www.w3.org/2000/svg" xmlns:xlink="http://www.w3.org/1999/xlink">
    <!-- Generator: Sketch 52.6 (67491) - http://www.bohemiancoding.com/sketch -->
    <title>ildiesign-logo</title>
    <desc>Created with Sketch.</desc>
    <g id="Page-1" stroke="none" stroke-width="1" fill="none" fill-rule="evenodd">
        <g id="Home-Page" transform="translate(-30.000000, -27.000000)" fill="#000000">
            <g id="Group-2">
                <g id="ildiesign-logo" transform="translate(30.000000, 27.000000)">
                    <g id="Combined-Shape">
                        <path d="M0.599257426,-1.95399252e-14 L4.05668317,-1.95399252e-14 C4.16595708,0.00894500839 4.26727916,0.0636219377 4.33802024,0.151819298 C4.40876132,0.240016658 4.4430284,0.354387284 4.43316832,0.469387755 L4.43316832,3.98979592 C4.44848882,4.22546346 4.28028616,4.4299296 4.05668317,4.44744898 L0.599257426,4.44744898 C0.489322882,4.43915867 0.387258755,4.38432731 0.316329445,4.29545311 C0.245400135,4.20657891 0.211650095,4.09123555 0.222772277,3.97571429 L0.222772277,0.469387755 C0.212912191,0.354387284 0.247179275,0.240016658 0.317920354,0.151819298 C0.388661433,0.0636219377 0.489983514,0.00894500839 0.599257426,-1.95399252e-14 Z M0.334158416,17.0387755 L0.334158416,6.28979592 C0.334158416,5.96575129 0.58350478,5.70306122 0.891089109,5.70306122 L3.80940594,5.70306122 C4.11699027,5.70306122 4.36633663,5.96575129 4.36633663,6.28979592 L4.36633663,17.0387755 C4.36633663,17.3628201 4.11699027,17.6255102 3.80940594,17.6255102 L0.891089109,17.6255102 C0.743381905,17.6255102 0.601724404,17.5636937 0.497279639,17.4536596 C0.392834874,17.3436255 0.334158416,17.1943872 0.334158416,17.0387755 Z M6.77227723,17.0411224 L6.77227723,0.93877551 C6.77227723,0.614730887 7.02162359,0.352040816 7.32920792,0.352040816 L10.2475248,0.352040816 C10.5551091,0.352040816 10.8044554,0.614730887 10.8044554,0.93877551 L10.8044554,17.0411224 C10.8044566,17.1965192 10.7457092,17.3455173 10.6411999,17.455179 C10.5366906,17.5648407 10.3950267,17.6261343 10.2475248,17.6255102 L7.32920792,17.6255102 C7.18170594,17.6261343 7.04004209,17.5648407 6.93553279,17.455179 C6.83102349,17.3455173 6.77227604,17.1965192 6.77227723,17.0411224 Z M25.1287129,0.93877551 L25.1287129,17.0387755 C25.127486,17.3631994 24.8775012,17.6255128 24.5695545,17.6255102 L21.720297,17.6255102 C21.4127127,17.6255102 21.1633663,17.3628201 21.1633663,17.0387755 L21.1633663,16.0061224 C20.8206591,16.5848168 20.3251792,17.0456409 19.7376238,17.3321429 C18.2445942,18.0687258 16.4983152,17.9537427 15.1039604,17.0270408 C14.3284108,16.4817893 13.7145643,15.717142 13.3329208,14.8209184 C12.8931934,13.7927844 12.6763106,12.6743896 12.6980198,11.5469388 C12.6771652,10.4309184 12.8941214,9.32417504 13.3329208,8.30816327 C13.7141187,7.42102468 14.328747,6.66762094 15.1039604,6.1372449 C15.877003,5.62458594 16.7747778,5.35959354 17.6881188,5.3744898 C18.3709594,5.36773076 19.0459293,5.52842922 19.6596535,5.84387755 C20.2318276,6.13284195 20.725914,6.56863221 21.0965347,7.11122449 L21.0965347,0.93877551 C21.0977557,0.615265204 21.3463882,0.353327155 21.6534653,0.352040816 L24.5695545,0.352040816 C24.8769989,0.353315952 25.1262752,0.614885937 25.1287129,0.93877551 Z M20.5841584,13.8469388 C20.970297,13.3321769 21.1633663,12.5811565 21.1633663,11.5938776 C21.1633663,10.6410204 20.9665842,9.90173469 20.5730198,9.37602041 C20.1787327,8.85214991 19.5696085,8.5596647 18.9356436,8.58979592 C18.2952402,8.54950669 17.674866,8.83272182 17.2648515,9.35255102 C16.8772277,9.86183673 16.6856436,10.5940816 16.6856436,11.5469388 C16.6856436,12.4997959 16.8816832,13.2954082 17.2759901,13.8352041 C17.669476,14.3757927 18.2897958,14.6784277 18.9356436,14.644898 C19.5738879,14.6812642 20.188961,14.387918 20.5841584,13.8586735 L20.5841584,13.8469388 Z M27.5346535,17.0387755 L27.5346535,6.29214286 C27.5340611,6.1361249 27.5924759,5.986283 27.696985,5.87574077 C27.801494,5.76519855 27.9434902,5.70305998 28.0915842,5.70306122 L31.0076733,5.70306122 C31.3164879,5.70306122 31.5668317,5.96680206 31.5668317,6.29214286 L31.5668317,17.0387755 C31.5668329,17.1947947 31.5078507,17.3443898 31.4029236,17.4544916 C31.2979966,17.5645934 31.1557661,17.6261343 31.0076733,17.6255102 L28.0915842,17.6255102 C27.7839998,17.6255102 27.5346535,17.3628201 27.5346535,17.0387755 Z M27.7975248,-1.95399252e-14 L31.2549505,-1.95399252e-14 C31.3646237,0.00834869278 31.4665143,0.0627696584 31.5377292,0.151035439 C31.608944,0.239301219 31.643511,0.354009665 31.6336634,0.469387755 L31.6336634,3.96632653 C31.6435235,4.081327 31.6092564,4.19569763 31.5385153,4.28389499 C31.4677742,4.37209235 31.3664521,4.42676928 31.2571782,4.43571429 L27.7975248,4.43571429 C27.6882508,4.42676928 27.5869288,4.37209235 27.5161877,4.28389499 C27.4454466,4.19569763 27.4111795,4.081327 27.4210396,3.96632653 L27.4210396,0.469387755 C27.4111795,0.354387284 27.4454466,0.240016658 27.5161877,0.151819298 C27.5869288,0.0636219377 27.6882508,0.00894500839 27.7975248,-1.95399252e-14 Z M43.8861386,12.0867347 L37.3143564,12.0867347 C37.3886139,13.0114286 37.6403465,13.6763946 38.0695545,14.0816327 C38.5017327,14.49 39.1321782,14.6918367 39.9631188,14.6918367 C40.5395115,14.690676 41.1119564,14.5916157 41.6584158,14.3984694 C42.0110841,14.2762373 42.3519642,14.1190722 42.6764851,13.9290816 C42.8112385,13.8514073 42.9713439,13.8391184 43.1153607,13.8953958 C43.2593774,13.9516732 43.3731491,14.0709849 43.4272277,14.222449 L44.0665842,15.9826531 C44.1582667,16.2357402 44.0643608,16.5216514 43.8438119,16.6609184 C43.3178596,16.996755 42.7513861,17.2564684 42.1596535,17.4330612 C41.3799179,17.6802668 40.570216,17.8067592 39.7559406,17.8085714 C38.5935713,17.8393494 37.4405869,17.5821029 36.3898515,17.057551 C35.4732554,16.590005 34.7122425,15.8414432 34.2066832,14.910102 C33.6855188,13.9036105 33.4243356,12.7705974 33.4492574,11.6243878 C33.4315702,10.5019528 33.6804482,9.39265933 34.1732673,8.39734694 C34.63431,7.4771554 35.3282838,6.70948816 36.1782178,6.1794898 C37.0679707,5.63861078 38.0805766,5.36278541 39.1076733,5.38153061 C40.0907205,5.35842593 41.0611504,5.61807346 41.914604,6.13255102 C42.7202825,6.63897516 43.3647054,7.38651035 43.7658416,8.28 C44.2136652,9.29742129 44.4346475,10.4092808 44.4118812,11.5305102 C44.4083053,11.8352198 44.1753523,12.0816791 43.8861386,12.0867347 Z M38.0940594,10.1153061 L40.2816832,10.1153061 C40.4574028,10.1165671 40.6223963,10.0264044 40.7226284,9.87434625 C40.8228604,9.72228811 40.8454207,9.52792012 40.7829208,9.35489796 C40.5155941,8.64142857 39.9957921,8.28469388 39.2235149,8.28469388 C38.5357983,8.2480815 37.896528,8.65737914 37.6106436,9.31734694 C37.5323874,9.49113711 37.5445154,9.6951201 37.6427447,9.85726411 C37.740974,10.0194081 37.9114826,10.1168975 38.0940594,10.1153061 Z M45.6683168,15.9357143 L46.2965347,14.1614286 C46.3518641,14.0033213 46.4692833,13.8780716 46.6186602,13.8178211 C46.7680371,13.7575705 46.9348304,13.7681843 47.0762376,13.8469388 C47.5606432,14.12865 48.0731732,14.3529765 48.6044554,14.5158163 C49.3409545,14.7533281 50.1065087,14.8758879 50.8767327,14.8795918 C51.2440297,14.8995978 51.6105704,14.8271935 51.9460396,14.6683673 C52.172539,14.5704947 52.3216211,14.3395239 52.3247525,14.0816327 C52.3269442,13.8661602 52.2211002,13.6654454 52.0462871,13.5535714 C51.7162728,13.3685442 51.3582057,13.2454484 50.9881188,13.1897959 L49.1613861,12.7438776 C48.0029703,12.495102 47.1675743,12.1039456 46.655198,11.5704082 C46.1428218,11.0368707 45.8881188,10.2858503 45.8910891,9.31734694 C45.8827356,8.57962466 46.1102967,7.86040771 46.5371287,7.2755102 C47.0075524,6.65157149 47.6262436,6.16980601 48.3304455,5.87908163 C49.1700776,5.52867382 50.0673353,5.35716837 50.970297,5.3744898 C51.785402,5.3748983 52.5960314,5.5014183 53.3762376,5.75 C53.9955978,5.94627497 54.5931001,6.21222922 55.1584158,6.54326531 C55.4020283,6.68878789 55.5065794,7.00120248 55.4034653,7.2755102 L54.7529703,8.98642857 C54.6923452,9.14265524 54.5710257,9.26398244 54.4197818,9.31963841 C54.2685379,9.37529439 54.1018989,9.35993252 53.9621287,9.27744898 C53.5540961,9.03859016 53.126051,8.83982571 52.6834158,8.68367347 C52.1172898,8.47548405 51.5230728,8.36454443 50.9235149,8.35510204 C50.5623364,8.33653854 50.2024661,8.41317092 49.8764851,8.57806122 C49.6415983,8.69700403 49.4937651,8.94894355 49.4977723,9.22346939 C49.4963346,9.39266852 49.5814478,9.5495875 49.7205446,9.63418367 C49.9870787,9.78333234 50.2730983,9.89010134 50.5693069,9.95102041 L52.4628713,10.3969388 C53.6658416,10.6957823 54.5309406,11.129966 55.0581683,11.6994898 C55.585396,12.2690136 55.8490099,13.047415 55.8490099,14.0346939 C55.8844018,15.1355639 55.384742,16.1795148 54.5235149,16.8040816 C53.6413366,17.4784354 52.419802,17.8148299 50.8589109,17.8132653 C48.8227723,17.8132653 47.1727723,17.4221088 45.9089109,16.6397959 C45.6786246,16.4964259 45.5776137,16.2008245 45.6683168,15.9357143 Z M57.5844059,17.0411224 L57.5844059,6.28979592 C57.5844059,5.96575129 57.8337523,5.70306122 58.1413366,5.70306122 L61.0618812,5.70306122 C61.2093844,5.70305997 61.3508139,5.76495128 61.4549051,5.87505337 C61.5589964,5.98515546 61.6171765,6.13440041 61.6165842,6.28979592 L61.6165842,17.0411224 C61.6171793,17.1963031 61.5589287,17.345309 61.4547724,17.4550391 C61.3506161,17.5647693 61.2091792,17.6261372 61.0618812,17.6255102 L58.1435644,17.6255102 C57.9956775,17.6267617 57.8534394,17.5657453 57.7484467,17.4560154 C57.6434541,17.3462855 57.5844012,17.1969284 57.5844059,17.0411224 Z M57.8517327,1.0658141e-14 L61.3069307,1.0658141e-14 C61.4166039,0.00834869278 61.5184945,0.0627696584 61.5897094,0.151035439 C61.6609242,0.239301219 61.6954912,0.354009665 61.6856436,0.469387755 L61.6856436,3.98979592 C61.6954912,4.10517401 61.6609242,4.21988245 61.5897094,4.30814823 C61.5184945,4.39641402 61.4166039,4.45083498 61.3069307,4.45918367 L57.8517327,4.45918367 C57.7424588,4.45023867 57.6411367,4.39556174 57.5703956,4.30736438 C57.4996545,4.21916702 57.4653874,4.10479639 57.4752475,3.98979592 L57.4752475,0.469387755 C57.4647638,0.354248553 57.4988057,0.239521624 57.5696687,0.151172224 C57.6405318,0.0628228226 57.7422249,0.00832037652 57.8517327,1.10872876e-14 Z M75.519802,5.70306122 C75.826516,5.70435375 76.0745074,5.96666562 76.074505,6.28979592 L76.074505,16.8744898 C76.074505,18.8318367 75.5175743,20.3182313 74.4037129,21.3336735 C73.2898515,22.3491156 71.6569307,22.8654422 69.5049505,22.8826531 C68.012152,22.9172562 66.5277823,22.6380052 65.1386139,22.0612245 C64.8909143,21.9534756 64.7500405,21.6763076 64.8022277,21.3993878 L65.1809406,19.4537755 C65.2093007,19.2824261 65.3089143,19.1334185 65.4524991,19.0475634 C65.5960838,18.9617082 65.7685903,18.948004 65.9227723,19.0102041 C66.3969428,19.1991112 66.8820904,19.3558934 67.3752475,19.4795918 C68.0273174,19.6526657 68.6966392,19.7432703 69.3690594,19.7494898 C70.2883663,19.7494898 70.9678218,19.5421769 71.4074257,19.127551 C71.8470297,18.7129252 72.0660891,18.067517 72.064604,17.1913265 L72.064604,15.4428571 C71.6586767,15.9895375 71.1458285,16.4377806 70.5608911,16.7571429 C69.9431818,17.1142705 69.249407,17.3000246 68.544802,17.2969388 C67.6280084,17.3134709 66.7253802,17.0572317 65.9405941,16.5576531 C65.1665979,16.0550258 64.5445461,15.3304876 64.1472772,14.4688776 C63.7005212,13.4927374 63.4791538,12.41915 63.5012376,11.3357143 C63.4845401,10.2590641 63.7097257,9.19351107 64.1584158,8.22602041 C64.5554736,7.36485186 65.1726578,6.63742649 65.9405941,6.1255102 C66.7205221,5.62079413 67.6206739,5.36031051 68.5358911,5.3744898 C69.2574072,5.36310264 69.9712155,5.53200272 70.6188119,5.86734694 C71.2088586,6.16483571 71.7098204,6.62764993 72.0668317,7.20510204 L72.0668317,6.28979592 C72.0668317,5.96575129 72.316178,5.70306122 72.6237624,5.70306122 L75.519802,5.70306122 Z M71.4631188,13.3892857 C71.8641089,12.8964286 72.064604,12.2158163 72.064604,11.3357143 C72.064604,10.4556122 71.8641089,9.82193878 71.4631188,9.32908163 C71.0424531,8.82695745 70.4271614,8.55470549 69.7923267,8.58979592 C69.156815,8.55633282 68.54022,8.82305264 68.110396,9.31734694 C67.7034653,9.80394558 67.5,10.4767347 67.5,11.3357143 C67.5,12.1946939 67.7079208,12.8753061 68.1237624,13.377551 C68.544248,13.8811736 69.1584817,14.1572714 69.7945545,14.1285714 C70.428624,14.1629337 71.0429487,13.8907467 71.4631188,13.3892857 Z M89.0064356,6.65357143 C89.6688119,7.50785714 90,8.7947619 90,10.5142857 L90,17.0411224 C90,17.1961117 89.9415582,17.344753 89.8375313,17.454347 C89.7335043,17.563941 89.5924134,17.6255102 89.445297,17.6255102 L86.520297,17.6255102 C86.213943,17.6255102 85.9655941,17.3638709 85.9655941,17.0411224 L85.9655941,10.7043878 C85.9655941,9.97057823 85.8467822,9.44251701 85.6091584,9.12020408 C85.3313187,8.78278846 84.9180016,8.60425984 84.495297,8.63908163 C83.9390221,8.61635649 83.40138,8.85236223 83.025,9.2844898 C82.6395938,9.7557328 82.440281,10.3646717 82.4680693,10.9860204 L82.4680693,17.0411224 C82.4680693,17.3638709 82.2197203,17.6255102 81.9133663,17.6255102 L78.9905941,17.6255102 C78.6842401,17.6255102 78.4358911,17.3638709 78.4358911,17.0411224 L78.4358911,9.12959184 C78.4358911,8.06642857 78.4091584,7.27785714 78.3980198,6.35081633 C78.3968339,6.19479887 78.4546806,6.04470865 78.5587721,5.93372548 C78.6628636,5.8227423 78.8046269,5.76000684 78.9527228,5.75938776 L81.6482673,5.75938776 C81.9461283,5.7591346 82.1910081,6.0067583 82.2029703,6.32030612 L82.245297,7.46326531 C82.6507173,6.81566576 83.2016858,6.28358343 83.8492574,5.91428571 C84.5157362,5.54783401 85.2584498,5.36230233 86.0101485,5.3744898 C87.3467822,5.3744898 88.3455446,5.80085034 89.0064356,6.65357143 Z" fill-rule="nonzero"></path>
                    </g>
                </g>
            </g>
        </g>
    </g>
</svg>