<?xml version="1.0" encoding="UTF-8"?>
<svg width="15px" height="14px" viewBox="0 0 15 14" version="1.1" xmlns="http://www.w3.org/2000/svg" xmlns:xlink="http://www.w3.org/1999/xlink">
    <!-- Generator: Sketch 61.2 (89653) - https://sketch.com -->
    <title>menu-icon</title>
    <desc>Created with Sketch.</desc>
    <g id="Page-1" stroke="none" stroke-width="1" fill="none" fill-rule="evenodd">
        <g id="mobile" transform="translate(-28.000000, -31.000000)" fill="#000000" fill-rule="nonzero">
            <g id="Group" transform="translate(15.000000, 18.000000)">
                <g id="menu-icon" transform="translate(13.000000, 13.000000)">
                    <path d="M0.529346948,2.52934695 L14.2928201,2.52934695 C14.5851427,2.52934695 14.8221671,2.08157937 14.8221671,1.52934695 C14.8221671,0.977114525 14.5851427,0.529346948 14.2928201,0.529346948 L0.529346948,0.529346948 C0.2370244,0.529346948 0,0.977114525 0,1.52934695 C0,2.08157937 0.2370244,2.52934695 0.529346948,2.52934695 Z" id="Path"></path>
                    <path d="M0.529346948,7.82298614 L14.2928201,7.82298614 C14.5851427,7.82298614 14.8221671,7.3752664 14.8221671,6.82309291 C14.8221671,6.27070589 14.5851427,5.82298614 14.2928201,5.82298614 L0.529346948,5.82298614 C0.2370244,5.82298614 0,6.27070589 0,6.82309291 C0,7.3752664 0.2370244,7.82298614 0.529346948,7.82298614 Z" id="Path"></path>
                    <path d="M0.529346948,13.1166253 L14.2928201,13.1166253 C14.5851427,13.1166253 14.8221671,12.6688577 14.8221671,12.1166253 C14.8221671,11.5643929 14.5851427,11.1166253 14.2928201,11.1166253 L0.529346948,11.1166253 C0.2370244,11.1166253 0,11.5643929 0,12.1166253 C0,12.6688577 0.2370244,13.1166253 0.529346948,13.1166253 L0.529346948,13.1166253 Z" id="Path"></path>
                </g>
            </g>
        </g>
    </g>
</svg>