<?xml version="1.0" encoding="UTF-8"?>
<svg width="319px" height="58px" viewBox="0 0 319 58" version="1.1" xmlns="http://www.w3.org/2000/svg" xmlns:xlink="http://www.w3.org/1999/xlink">
    <!-- Generator: Sketch 52.6 (67491) - http://www.bohemiancoding.com/sketch -->
    <title>social-icons</title>
    <desc>Created with Sketch.</desc>
    <defs>
        <linearGradient x1="50%" y1="99.7089109%" x2="50%" y2="0.776721582%" id="linearGradient-1">
            <stop stop-color="#E09B3D" offset="0%"></stop>
            <stop stop-color="#C74C4D" offset="30%"></stop>
            <stop stop-color="#C21975" offset="60%"></stop>
            <stop stop-color="#7024C4" offset="100%"></stop>
        </linearGradient>
        <linearGradient x1="50%" y1="146.098873%" x2="50%" y2="-45.1596833%" id="linearGradient-2">
            <stop stop-color="#E09B3D" offset="0%"></stop>
            <stop stop-color="#C74C4D" offset="30%"></stop>
            <stop stop-color="#C21975" offset="60%"></stop>
            <stop stop-color="#7024C4" offset="100%"></stop>
        </linearGradient>
        <linearGradient x1="50%" y1="658.140556%" x2="50%" y2="-140.029283%" id="linearGradient-3">
            <stop stop-color="#E09B3D" offset="0%"></stop>
            <stop stop-color="#C74C4D" offset="30%"></stop>
            <stop stop-color="#C21975" offset="60%"></stop>
            <stop stop-color="#7024C4" offset="100%"></stop>
        </linearGradient>
    </defs>
    <g id="Page-1" stroke="none" stroke-width="1" fill="none" fill-rule="evenodd">
        <g id="social-icons" transform="translate(-30.000000, -17.000000)">
            <rect id="Rectangle" fill="#FFFFFF" fill-rule="nonzero" opacity="0" x="0" y="0" width="379" height="92"></rect>
            <g id="Group-19" transform="translate(30.000000, 17.000000)" fill="#000000" opacity="0.3">
                <g id="dribbble-logo" transform="translate(208.000000, 1.000000)" fill-rule="nonzero">
                    <path d="M7.49970357,0 C3.3574818,0.000313868087 0,3.35800491 0,7.50033131 C0,11.6419253 3.3574818,15 7.49970357,15 C11.6419253,15 14.9995466,11.6419253 15,7.50033131 C14.9995466,3.35800491 11.6419253,0.000313868087 7.49970357,0 Z M12.0950462,3.8886861 C12.8268122,4.81791001 13.2849899,5.96851554 13.3427765,7.22503412 C12.4960999,7.0453272 11.6961199,6.95786263 10.9503344,6.95786263 L10.9503344,6.95768826 L10.9448243,6.95768826 C10.3443947,6.95768826 9.78089683,7.01219668 9.24979715,7.10639198 C9.12072762,6.79004782 8.9898795,6.48618864 8.8580549,6.19516318 C10.0408494,5.6763741 11.1761451,4.93766812 12.0950462,3.8886861 Z M7.49970357,1.64885368 C8.87988617,1.64885368 10.14603,2.13137356 11.148455,2.93466661 C10.3813614,3.85304464 9.36885778,4.51816599 8.27506237,4.98781727 C7.50650404,3.50165188 6.76385728,2.43847604 6.25619308,1.78849011 C6.65804886,1.6993167 7.07284297,1.64885368 7.49970357,1.64885368 Z M4.91520912,2.258804 C5.32135442,2.73853393 6.13451689,3.79372357 7.00302476,5.44118228 C5.23667979,5.96698108 3.45802421,6.09050561 2.38184029,6.09019174 C2.35115097,6.09019174 2.32081038,6.09019174 2.29102779,6.08987787 L2.29005131,6.08987787 C2.10880993,6.08987787 1.95295699,6.08701818 1.82284123,6.08304252 C2.2426921,4.40301127 3.39364638,3.01163404 4.91520912,2.258804 Z M1.64836544,7.50033131 C1.64836544,7.47281554 1.64934192,7.4448464 1.65098101,7.41604029 C1.81806346,7.42221303 2.03233074,7.42751391 2.29022568,7.42751391 L2.2916904,7.42751391 C3.46789362,7.41984158 5.52153251,7.32156599 7.60275692,6.66450059 C7.7162028,6.912561 7.82849783,7.17083956 7.93950251,7.43898753 C6.54965974,7.90382617 5.45502735,8.64438048 4.64538719,9.38186586 C3.8659481,10.0918006 3.3393472,10.7949697 3.03165185,11.2643769 C2.17064194,10.2449682 1.64881881,8.93491771 1.64836544,7.50033131 Z M7.49970357,13.3519135 C6.19753462,13.3519135 4.99733793,12.9212517 4.02368425,12.1986227 C4.23062795,11.8577968 4.6743328,11.2034865 5.38088474,10.5273798 C6.1078381,9.83076698 7.11134412,9.11364815 8.42156901,8.68689217 C8.86691296,9.93528505 9.26988471,11.3623735 9.57684769,12.9687852 C8.93017481,13.2150322 8.2314347,13.3519135 7.49970357,13.3519135 Z M10.8113955,12.3128707 C10.5145112,10.8600451 10.1412871,9.54999454 9.73148004,8.38087079 C10.1115045,8.32636236 10.5104309,8.29560329 10.9315024,8.29560329 L10.9466378,8.29560329 L10.9476143,8.29560329 L10.9485907,8.29560329 C11.6464939,8.29560329 12.4134131,8.3823355 13.2451287,8.57131897 C12.957207,10.1185143 12.0610439,11.4510238 10.8113955,12.3128707 Z" id="Dribbble"></path>
                </g>
                <g id="facebook-logo" transform="translate(260.000000, 0.000000)">
                    <path d="M7.56060377,0.00309278351 L5.67909434,0 C3.56528302,0 2.19924528,1.43582474 2.19924528,3.65814433 L2.19924528,5.34479381 L0.307471698,5.34479381 C0.144,5.34479381 0.0116226415,5.48056701 0.0116226415,5.64804124 L0.0116226415,8.09180412 C0.0116226415,8.25927835 0.144150943,8.39489691 0.307471698,8.39489691 L2.19924528,8.39489691 L2.19924528,14.5612887 C2.19924528,14.7287629 2.33162264,14.8643814 2.49509434,14.8643814 L4.96332075,14.8643814 C5.12679245,14.8643814 5.25916981,14.7286082 5.25916981,14.5612887 L5.25916981,8.39489691 L7.47109434,8.39489691 C7.63456604,8.39489691 7.7669434,8.25927835 7.7669434,8.09180412 L7.76784906,5.64804124 C7.76784906,5.56762887 7.73660377,5.49061856 7.68120755,5.43371134 C7.62581132,5.37680412 7.55033962,5.34479381 7.47184906,5.34479381 L5.25916981,5.34479381 L5.25916981,3.915 C5.25916981,3.22778351 5.41901887,2.87891753 6.29283019,2.87891753 L7.56030189,2.87845361 C7.72362264,2.87845361 7.856,2.74268041 7.856,2.57536082 L7.856,0.306185567 C7.856,0.139020619 7.72377358,0.00340206186 7.56060377,0.00309278351 Z" id="Path"></path>
                </g>
                <g id="linked-in-logo" transform="translate(105.000000, 1.000000)" fill-rule="nonzero">
                    <path d="M15.6604258,9.19631004 L15.6604258,14.9848035 L12.3025546,14.9848035 L12.3025546,9.58129913 C12.3025546,8.22275109 11.8183952,7.29943231 10.6033952,7.29943231 C9.67421397,7.29943231 9.1260917,7.9245524 8.8814083,8.52615721 C8.79330786,8.74280568 8.76655022,9.04621179 8.76655022,9.34572052 L8.76655022,14.9841157 L5.4119869,14.9841157 C5.4119869,14.9841157 5.45701965,5.83581878 5.4119869,4.88836245 L8.76723799,4.88836245 L8.76723799,6.31932314 C8.76268559,6.33108079 8.75289301,6.34084061 8.74830786,6.3539083 L8.76723799,6.3539083 L8.76723799,6.31932314 C9.21550218,5.63158297 10.0096179,4.6514738 11.7929476,4.6514738 C14.0062991,4.65150655 15.6604258,6.09422489 15.6604258,9.19631004 Z M1.89946507,0.0206004367 C0.751703057,0.0206004367 0,0.773613537 0,1.76675764 C0,2.7331441 0.729530568,3.5116048 1.85639738,3.5116048 L1.87663755,3.5116048 C3.04984716,3.5116048 3.77675764,2.7331441 3.77675764,1.76675764 C3.75393013,0.773613537 3.04987991,0.0206004367 1.89946507,0.0206004367 Z M0.200338428,14.9847707 L3.55624454,14.9847707 L3.55624454,4.88774017 L0.200338428,4.88774017 L0.200338428,14.9847707 Z" id="LinkedIn_3_"></path>
                </g>
                <g id="github-logo" transform="translate(157.000000, 0.000000)">
                    <path d="M13.9794533,3.83122378 C13.3094761,2.65653846 12.4006948,1.72653846 11.2528702,1.04101399 C10.1048747,0.355454545 8.85160592,0.0127622378 7.4921754,0.0127622378 C6.13291572,0.0127622378 4.8792369,0.355559441 3.73148064,1.04101399 C2.58355353,1.7265035 1.67480638,2.65653846 1.00482916,3.83122378 C0.334954442,5.00587413 0,6.2886014 0,7.67937063 C0,9.35 0.476309795,10.8522727 1.42916856,12.1865734 C2.38192483,13.520979 3.61274487,14.4443357 5.1215262,14.9567483 C5.29715262,14.9901049 5.42716401,14.9666434 5.51169704,14.886958 C5.59626424,14.8071678 5.63849658,14.7072378 5.63849658,14.5875874 C5.63849658,14.5676224 5.63682232,14.388007 5.63357631,14.0485315 C5.63022779,13.7090559 5.62865604,13.4129021 5.62865604,13.1602098 L5.40427107,13.1999301 C5.26120729,13.2267483 5.08072893,13.2381119 4.86283599,13.2348951 C4.64504556,13.2317832 4.41895216,13.2084266 4.18486333,13.165 C3.95067198,13.121958 3.73284738,13.0221329 3.53121868,12.8657343 C3.32969248,12.7093357 3.1866287,12.5046154 3.1020615,12.2518881 L3.00451025,12.0221678 C2.93948747,11.8692308 2.83711845,11.6993357 2.69726651,11.5131119 C2.55741458,11.3267133 2.41599089,11.2003497 2.27292711,11.1338112 L2.20462415,11.0837762 C2.15911162,11.0505245 2.11687927,11.0104196 2.0778246,10.9638811 C2.0388041,10.9173427 2.00958998,10.8707692 1.99007973,10.8241259 C1.97053531,10.7774476 1.98673121,10.7391608 2.03883827,10.7091259 C2.09094533,10.6790909 2.1851139,10.6645105 2.32175399,10.6645105 L2.51678815,10.6943357 C2.64686788,10.721014 2.80776765,10.8006993 2.99969248,10.9338811 C3.19151481,11.066958 3.34920273,11.239965 3.47279043,11.4528322 C3.62244875,11.7257692 3.80275626,11.9337413 4.01422551,12.0768531 C4.22552392,12.219965 4.43856492,12.2913986 4.65314351,12.2913986 C4.8677221,12.2913986 5.05305239,12.2747552 5.20920273,12.2416434 C5.36518223,12.2083566 5.5115262,12.1583217 5.64816629,12.0918182 C5.70669704,11.6457343 5.86605923,11.303042 6.12611617,11.0634965 C5.75545558,11.0236364 5.42220957,10.9636014 5.12620729,10.8837762 C4.83037585,10.8038462 4.5246697,10.6741259 4.20929385,10.4942657 C3.89374715,10.3146503 3.63198178,10.0916084 3.42392938,9.82552448 C3.21584282,9.5593007 3.04506834,9.20979021 2.9118451,8.77730769 C2.77855353,8.34465035 2.71189066,7.84555944 2.71189066,7.2798951 C2.71189066,6.47447552 2.96883827,5.78909091 3.48263098,5.22335664 C3.24194761,4.61783217 3.2646697,3.93902098 3.5508656,3.18699301 C3.73947608,3.12702797 4.01917995,3.17202797 4.38984055,3.32171329 C4.76056948,3.47146853 5.03200456,3.59975524 5.20441913,3.70611888 C5.37683371,3.81244755 5.51497722,3.90255245 5.61905467,3.97562937 C6.22400911,3.80265734 6.84830296,3.71615385 7.49210706,3.71615385 C8.13591116,3.71615385 8.76034169,3.80265734 9.3653303,3.97562937 L9.73602506,3.73615385 C9.98952164,3.57636364 10.2888724,3.42993007 10.6333599,3.29681818 C10.9780524,3.16377622 11.2416287,3.12713287 11.4238155,3.1870979 C11.7163667,3.93916084 11.7424374,4.61793706 11.5016856,5.22346154 C12.0154442,5.7891958 12.2724943,6.47475524 12.2724943,7.28 C12.2724943,7.84566434 12.2055923,8.34632867 12.0725057,8.78230769 C11.9392483,9.21835664 11.7670046,9.56751748 11.5557062,9.83052448 C11.3441686,10.0934965 11.0807289,10.3147902 10.7653531,10.4943706 C10.4499089,10.6740909 10.1441002,10.8038112 9.84826879,10.8837413 C9.55230068,10.9636713 9.21905467,11.0237413 8.84839408,11.0636713 C9.18645786,11.363042 9.35552392,11.8355944 9.35552392,12.4811189 L9.35552392,14.5873077 C9.35552392,14.706958 9.39618451,14.8068531 9.47757403,14.8866783 C9.55886105,14.9663636 9.68723235,14.9898252 9.86285877,14.9564336 C11.3718451,14.4440909 12.6026651,13.5206993 13.5553872,12.1862937 C14.5080068,10.851993 14.9844875,9.34972028 14.9844875,7.67909091 C14.9841458,6.2884965 14.6490205,5.00587413 13.9794533,3.83122378 Z" id="Path"></path>
                </g>
                <g id="instagram-logo" transform="translate(304.000000, 0.000000)">
                    <path d="M11.2392073,0 L3.74652439,0 C1.68621951,0 0.000182926829,1.68603659 0.000182926829,3.74634146 L0.000182926829,11.2393902 C0.000182926829,13.2991463 1.68621951,14.9857317 3.74652439,14.9857317 L11.2392073,14.9857317 C13.2995122,14.9857317 14.9855488,13.2991463 14.9855488,11.2393902 L14.9855488,3.74634146 C14.9855488,1.68603659 13.2995122,0 11.2392073,0 Z M13.7367073,11.2393902 C13.7367073,12.6161707 12.6167561,13.7368902 11.2392073,13.7368902 L3.74652439,13.7368902 C2.36956098,13.7368902 1.24902439,12.6161707 1.24902439,11.2393902 L1.24902439,3.74634146 C1.24902439,2.36919512 2.36956098,1.24884146 3.74652439,1.24884146 L11.2392073,1.24884146 C12.6167561,1.24884146 13.7367073,2.36919512 13.7367073,3.74634146 L13.7367073,11.2393902 Z" id="Shape" fill-rule="nonzero"></path>
                    <circle id="Oval" cx="11.5520122" cy="3.43408537" r="1"></circle>
                    <path d="M7.49286585,3.74634146 C5.42337805,3.74634146 3.74652439,5.42337805 3.74652439,7.49268293 C3.74652439,9.56121951 5.42337805,11.2393902 7.49286585,11.2393902 C9.56176829,11.2393902 11.2392073,9.56121951 11.2392073,7.49268293 C11.2392073,5.42337805 9.56176829,3.74634146 7.49286585,3.74634146 Z M7.49286585,9.99054878 C6.11363415,9.99054878 4.99536585,8.87228049 4.99536585,7.49268293 C4.99536585,6.11308537 6.11363415,4.99518293 7.49286585,4.99518293 C8.87209756,4.99518293 9.99036585,6.11308537 9.99036585,7.49268293 C9.99036585,8.87228049 8.87209756,9.99054878 7.49286585,9.99054878 Z" id="Shape" fill-rule="nonzero"></path>
                </g>
                <g id="behance-logo" transform="translate(51.000000, 2.000000)">
                    <path d="M7.4106,5.35916129 C7.4106,5.35916129 9.14805833,5.22890323 9.14805833,3.17090323 C9.14805833,1.11309677 7.72646667,0.10916129 5.92556667,0.10916129 L2.61088333,0.10916129 L2.51351667,0.10916129 L0,0.10916129 L0,11.6086452 L2.51351667,11.6086452 L2.61088333,11.6086452 L5.92556667,11.6086452 C5.92556667,11.6086452 9.54289167,11.7241935 9.54289167,8.21458065 C9.54308333,8.21458065 9.700825,5.35916129 7.4106,5.35916129 Z M2.61088333,2.15322581 L5.49910833,2.15322581 L5.92575833,2.15322581 C5.92575833,2.15322581 6.73133333,2.15322581 6.73133333,3.34954839 C6.73133333,4.54587097 6.25734167,4.71929032 5.72029167,4.71929032 L2.61088333,4.71929032 L2.61088333,2.15322581 Z M5.77280833,9.56516129 L2.61088333,9.56516129 L2.61088333,6.49180083 L5.92556667,6.49180645 C5.92556667,6.49180645 7.12616667,6.47632258 7.12616667,8.07116129 C7.12616667,9.40103226 6.24814167,9.55180645 5.77280833,9.56516129 Z" id="Shape" fill-rule="nonzero"></path>
                    <rect id="Rectangle" x="11.9178333" y="0.786580645" width="4.69851667" height="1.41619355"></rect>
                    <path d="M14.367525,3.03522581 C9.98827268,3.03522581 9.99215833,7.45316129 9.99215833,7.45316129 C9.99215833,7.45316129 9.69200833,11.8492258 14.3677167,11.8492258 C14.3677167,11.8492258 18.2644917,12.074129 18.2644917,8.79096774 L16.260425,8.79096774 C16.260425,8.79096774 16.3273167,10.0279355 14.4346083,10.0279355 C14.4346083,10.0279355 12.4307333,10.1632258 12.4307333,8.02664516 L18.3311917,8.02664516 C18.3311917,8.02664516 18.976725,3.03522581 14.367525,3.03522581 Z M16.1488821,6.49180645 L12.4081167,6.49180645 C12.4081167,6.49180645 12.652875,4.71929032 14.4119917,4.71929032 C16.1713,4.71909677 16.1488821,6.49180645 16.1488821,6.49180645 Z" id="Shape" fill-rule="nonzero"></path>
                </g>
                <g id="twitter-logo" transform="translate(0.000000, 2.000000)">
                    <path d="M14.1418511,1.40982456 C13.8225635,1.55161404 13.4911182,1.66347368 13.151019,1.74445614 C13.5257693,1.38782456 13.8075328,0.941754386 13.9664934,0.443859649 C14.0118657,0.301719298 13.8577051,0.178807018 13.7295416,0.254912281 C13.2564088,0.535964912 12.7467679,0.746807018 12.2147387,0.881649123 C12.1838715,0.889473684 12.1520234,0.893438596 12.1200701,0.893438596 C12.0231591,0.893438596 11.928946,0.857403509 11.8548438,0.792 C11.2887942,0.292385965 10.5607708,0.0172280702 9.80492847,0.0172280702 C9.47786277,0.0172280702 9.1476438,0.0682807018 8.82341606,0.168982456 C7.81884964,0.481017544 7.04373723,1.31087719 6.80054891,2.33473684 C6.70931387,2.71877193 6.68461314,3.10315789 6.72707737,3.47719298 C6.73194745,3.52017544 6.71166131,3.55017544 6.69915328,3.56424561 C6.6771854,3.58891228 6.64603796,3.60305263 6.61369927,3.60305263 C6.61009051,3.60305263 6.60637664,3.60287719 6.60269781,3.60252632 C4.40373723,3.39792982 2.42081168,2.33698246 1.01917664,0.615157895 C0.94770219,0.527333333 0.810639416,0.538105263 0.753670073,0.635964912 C0.479194161,1.10754386 0.334143066,1.64691228 0.334143066,2.19575439 C0.334143066,3.03687719 0.671579562,3.82954386 1.25770511,4.40740351 C1.01122336,4.34887719 0.772659854,4.25670175 0.551054015,4.1334386 C0.443842336,4.07378947 0.311929927,4.15045614 0.310423358,4.27326316 C0.295077372,5.52280702 1.02558832,6.63466667 2.11991825,7.13533333 C2.09788029,7.13585965 2.07584234,7.13610526 2.05376934,7.13610526 C1.88030365,7.13610526 1.70466569,7.11933333 1.53179562,7.08624561 C1.41105985,7.06315789 1.3096292,7.17785965 1.34711825,7.29508772 C1.70231825,8.40564912 2.65713285,9.22424561 3.79974307,9.41010526 C2.85144526,10.047614 1.74712993,10.3838947 0.597757664,10.3838947 L0.239439416,10.3836842 C0.129039416,10.3836842 0.0356671533,10.4557544 0.00753284672,10.5628421 C-0.0201810219,10.6683158 0.0308671533,10.7795789 0.125010219,10.8344211 C1.42016934,11.5892632 2.89748321,11.9882105 4.39788613,11.9882105 C5.7112292,11.9882105 6.93974891,11.727193 8.04935474,11.2124561 C9.06656934,10.7405614 9.96546569,10.066 10.7210628,9.20750877 C11.424946,8.40778947 11.9753693,7.48459649 12.3569869,6.46361404 C12.7207708,5.49038596 12.9130511,4.45192982 12.9130511,3.46049123 L12.9130511,3.41326316 C12.9130161,3.25407018 12.9849109,3.1042807 13.1103416,3.00231579 C13.5863124,2.61529825 14.0007942,2.1597193 14.3422248,1.64824561 C14.4323737,1.51319298 14.2901956,1.34392982 14.1418511,1.40982456 Z" id="Path"></path>
                </g>
            </g>
            <g id="Group-19" transform="translate(30.000000, 59.000000)">
                <g id="dribbble-logo" transform="translate(208.000000, 1.000000)" fill="#DA5888" fill-rule="nonzero">
                    <path d="M7.49970357,0 C3.3574818,0.000313868087 0,3.35800491 0,7.50033131 C0,11.6419253 3.3574818,15 7.49970357,15 C11.6419253,15 14.9995466,11.6419253 15,7.50033131 C14.9995466,3.35800491 11.6419253,0.000313868087 7.49970357,0 Z M12.0950462,3.8886861 C12.8268122,4.81791001 13.2849899,5.96851554 13.3427765,7.22503412 C12.4960999,7.0453272 11.6961199,6.95786263 10.9503344,6.95786263 L10.9503344,6.95768826 L10.9448243,6.95768826 C10.3443947,6.95768826 9.78089683,7.01219668 9.24979715,7.10639198 C9.12072762,6.79004782 8.9898795,6.48618864 8.8580549,6.19516318 C10.0408494,5.6763741 11.1761451,4.93766812 12.0950462,3.8886861 Z M7.49970357,1.64885368 C8.87988617,1.64885368 10.14603,2.13137356 11.148455,2.93466661 C10.3813614,3.85304464 9.36885778,4.51816599 8.27506237,4.98781727 C7.50650404,3.50165188 6.76385728,2.43847604 6.25619308,1.78849011 C6.65804886,1.6993167 7.07284297,1.64885368 7.49970357,1.64885368 Z M4.91520912,2.258804 C5.32135442,2.73853393 6.13451689,3.79372357 7.00302476,5.44118228 C5.23667979,5.96698108 3.45802421,6.09050561 2.38184029,6.09019174 C2.35115097,6.09019174 2.32081038,6.09019174 2.29102779,6.08987787 L2.29005131,6.08987787 C2.10880993,6.08987787 1.95295699,6.08701818 1.82284123,6.08304252 C2.2426921,4.40301127 3.39364638,3.01163404 4.91520912,2.258804 Z M1.64836544,7.50033131 C1.64836544,7.47281554 1.64934192,7.4448464 1.65098101,7.41604029 C1.81806346,7.42221303 2.03233074,7.42751391 2.29022568,7.42751391 L2.2916904,7.42751391 C3.46789362,7.41984158 5.52153251,7.32156599 7.60275692,6.66450059 C7.7162028,6.912561 7.82849783,7.17083956 7.93950251,7.43898753 C6.54965974,7.90382617 5.45502735,8.64438048 4.64538719,9.38186586 C3.8659481,10.0918006 3.3393472,10.7949697 3.03165185,11.2643769 C2.17064194,10.2449682 1.64881881,8.93491771 1.64836544,7.50033131 Z M7.49970357,13.3519135 C6.19753462,13.3519135 4.99733793,12.9212517 4.02368425,12.1986227 C4.23062795,11.8577968 4.6743328,11.2034865 5.38088474,10.5273798 C6.1078381,9.83076698 7.11134412,9.11364815 8.42156901,8.68689217 C8.86691296,9.93528505 9.26988471,11.3623735 9.57684769,12.9687852 C8.93017481,13.2150322 8.2314347,13.3519135 7.49970357,13.3519135 Z M10.8113955,12.3128707 C10.5145112,10.8600451 10.1412871,9.54999454 9.73148004,8.38087079 C10.1115045,8.32636236 10.5104309,8.29560329 10.9315024,8.29560329 L10.9466378,8.29560329 L10.9476143,8.29560329 L10.9485907,8.29560329 C11.6464939,8.29560329 12.4134131,8.3823355 13.2451287,8.57131897 C12.957207,10.1185143 12.0610439,11.4510238 10.8113955,12.3128707 Z" id="Dribbble"></path>
                </g>
                <g id="facebook-logo" transform="translate(260.000000, 0.000000)" fill="#4A67AD">
                    <path d="M7.56060377,0.00309278351 L5.67909434,0 C3.56528302,0 2.19924528,1.43582474 2.19924528,3.65814433 L2.19924528,5.34479381 L0.307471698,5.34479381 C0.144,5.34479381 0.0116226415,5.48056701 0.0116226415,5.64804124 L0.0116226415,8.09180412 C0.0116226415,8.25927835 0.144150943,8.39489691 0.307471698,8.39489691 L2.19924528,8.39489691 L2.19924528,14.5612887 C2.19924528,14.7287629 2.33162264,14.8643814 2.49509434,14.8643814 L4.96332075,14.8643814 C5.12679245,14.8643814 5.25916981,14.7286082 5.25916981,14.5612887 L5.25916981,8.39489691 L7.47109434,8.39489691 C7.63456604,8.39489691 7.7669434,8.25927835 7.7669434,8.09180412 L7.76784906,5.64804124 C7.76784906,5.56762887 7.73660377,5.49061856 7.68120755,5.43371134 C7.62581132,5.37680412 7.55033962,5.34479381 7.47184906,5.34479381 L5.25916981,5.34479381 L5.25916981,3.915 C5.25916981,3.22778351 5.41901887,2.87891753 6.29283019,2.87891753 L7.56030189,2.87845361 C7.72362264,2.87845361 7.856,2.74268041 7.856,2.57536082 L7.856,0.306185567 C7.856,0.139020619 7.72377358,0.00340206186 7.56060377,0.00309278351 Z" id="Path"></path>
                </g>
                <g id="linked-in-logo" transform="translate(105.000000, 1.000000)" fill="#3176B0" fill-rule="nonzero">
                    <path d="M15.6604258,9.19631004 L15.6604258,14.9848035 L12.3025546,14.9848035 L12.3025546,9.58129913 C12.3025546,8.22275109 11.8183952,7.29943231 10.6033952,7.29943231 C9.67421397,7.29943231 9.1260917,7.9245524 8.8814083,8.52615721 C8.79330786,8.74280568 8.76655022,9.04621179 8.76655022,9.34572052 L8.76655022,14.9841157 L5.4119869,14.9841157 C5.4119869,14.9841157 5.45701965,5.83581878 5.4119869,4.88836245 L8.76723799,4.88836245 L8.76723799,6.31932314 C8.76268559,6.33108079 8.75289301,6.34084061 8.74830786,6.3539083 L8.76723799,6.3539083 L8.76723799,6.31932314 C9.21550218,5.63158297 10.0096179,4.6514738 11.7929476,4.6514738 C14.0062991,4.65150655 15.6604258,6.09422489 15.6604258,9.19631004 Z M1.89946507,0.0206004367 C0.751703057,0.0206004367 0,0.773613537 0,1.76675764 C0,2.7331441 0.729530568,3.5116048 1.85639738,3.5116048 L1.87663755,3.5116048 C3.04984716,3.5116048 3.77675764,2.7331441 3.77675764,1.76675764 C3.75393013,0.773613537 3.04987991,0.0206004367 1.89946507,0.0206004367 Z M0.200338428,14.9847707 L3.55624454,14.9847707 L3.55624454,4.88774017 L0.200338428,4.88774017 L0.200338428,14.9847707 Z" id="LinkedIn_3_"></path>
                </g>
                <g id="github-logo" transform="translate(157.000000, 0.000000)" fill="#171515">
                    <path d="M13.9794533,3.83122378 C13.3094761,2.65653846 12.4006948,1.72653846 11.2528702,1.04101399 C10.1048747,0.355454545 8.85160592,0.0127622378 7.4921754,0.0127622378 C6.13291572,0.0127622378 4.8792369,0.355559441 3.73148064,1.04101399 C2.58355353,1.7265035 1.67480638,2.65653846 1.00482916,3.83122378 C0.334954442,5.00587413 0,6.2886014 0,7.67937063 C0,9.35 0.476309795,10.8522727 1.42916856,12.1865734 C2.38192483,13.520979 3.61274487,14.4443357 5.1215262,14.9567483 C5.29715262,14.9901049 5.42716401,14.9666434 5.51169704,14.886958 C5.59626424,14.8071678 5.63849658,14.7072378 5.63849658,14.5875874 C5.63849658,14.5676224 5.63682232,14.388007 5.63357631,14.0485315 C5.63022779,13.7090559 5.62865604,13.4129021 5.62865604,13.1602098 L5.40427107,13.1999301 C5.26120729,13.2267483 5.08072893,13.2381119 4.86283599,13.2348951 C4.64504556,13.2317832 4.41895216,13.2084266 4.18486333,13.165 C3.95067198,13.121958 3.73284738,13.0221329 3.53121868,12.8657343 C3.32969248,12.7093357 3.1866287,12.5046154 3.1020615,12.2518881 L3.00451025,12.0221678 C2.93948747,11.8692308 2.83711845,11.6993357 2.69726651,11.5131119 C2.55741458,11.3267133 2.41599089,11.2003497 2.27292711,11.1338112 L2.20462415,11.0837762 C2.15911162,11.0505245 2.11687927,11.0104196 2.0778246,10.9638811 C2.0388041,10.9173427 2.00958998,10.8707692 1.99007973,10.8241259 C1.97053531,10.7774476 1.98673121,10.7391608 2.03883827,10.7091259 C2.09094533,10.6790909 2.1851139,10.6645105 2.32175399,10.6645105 L2.51678815,10.6943357 C2.64686788,10.721014 2.80776765,10.8006993 2.99969248,10.9338811 C3.19151481,11.066958 3.34920273,11.239965 3.47279043,11.4528322 C3.62244875,11.7257692 3.80275626,11.9337413 4.01422551,12.0768531 C4.22552392,12.219965 4.43856492,12.2913986 4.65314351,12.2913986 C4.8677221,12.2913986 5.05305239,12.2747552 5.20920273,12.2416434 C5.36518223,12.2083566 5.5115262,12.1583217 5.64816629,12.0918182 C5.70669704,11.6457343 5.86605923,11.303042 6.12611617,11.0634965 C5.75545558,11.0236364 5.42220957,10.9636014 5.12620729,10.8837762 C4.83037585,10.8038462 4.5246697,10.6741259 4.20929385,10.4942657 C3.89374715,10.3146503 3.63198178,10.0916084 3.42392938,9.82552448 C3.21584282,9.5593007 3.04506834,9.20979021 2.9118451,8.77730769 C2.77855353,8.34465035 2.71189066,7.84555944 2.71189066,7.2798951 C2.71189066,6.47447552 2.96883827,5.78909091 3.48263098,5.22335664 C3.24194761,4.61783217 3.2646697,3.93902098 3.5508656,3.18699301 C3.73947608,3.12702797 4.01917995,3.17202797 4.38984055,3.32171329 C4.76056948,3.47146853 5.03200456,3.59975524 5.20441913,3.70611888 C5.37683371,3.81244755 5.51497722,3.90255245 5.61905467,3.97562937 C6.22400911,3.80265734 6.84830296,3.71615385 7.49210706,3.71615385 C8.13591116,3.71615385 8.76034169,3.80265734 9.3653303,3.97562937 L9.73602506,3.73615385 C9.98952164,3.57636364 10.2888724,3.42993007 10.6333599,3.29681818 C10.9780524,3.16377622 11.2416287,3.12713287 11.4238155,3.1870979 C11.7163667,3.93916084 11.7424374,4.61793706 11.5016856,5.22346154 C12.0154442,5.7891958 12.2724943,6.47475524 12.2724943,7.28 C12.2724943,7.84566434 12.2055923,8.34632867 12.0725057,8.78230769 C11.9392483,9.21835664 11.7670046,9.56751748 11.5557062,9.83052448 C11.3441686,10.0934965 11.0807289,10.3147902 10.7653531,10.4943706 C10.4499089,10.6740909 10.1441002,10.8038112 9.84826879,10.8837413 C9.55230068,10.9636713 9.21905467,11.0237413 8.84839408,11.0636713 C9.18645786,11.363042 9.35552392,11.8355944 9.35552392,12.4811189 L9.35552392,14.5873077 C9.35552392,14.706958 9.39618451,14.8068531 9.47757403,14.8866783 C9.55886105,14.9663636 9.68723235,14.9898252 9.86285877,14.9564336 C11.3718451,14.4440909 12.6026651,13.5206993 13.5553872,12.1862937 C14.5080068,10.851993 14.9844875,9.34972028 14.9844875,7.67909091 C14.9841458,6.2884965 14.6490205,5.00587413 13.9794533,3.83122378 Z" id="Path"></path>
                </g>
                <g id="instagram-logo" opacity="0.900000036" transform="translate(304.000000, 0.000000)">
                    <path d="M10.5129891,0 L4.46076087,0 C2.00108696,0 0,2.00108696 0,4.46076087 L0,10.5129891 C0,12.972663 2.00108696,14.97375 4.46076087,14.97375 L10.5129891,14.97375 C12.972663,14.97375 14.97375,12.972663 14.97375,10.5129891 L14.97375,4.46076087 C14.9737228,2.00108696 12.9726359,0 10.5129891,0 Z M13.4673913,10.5129891 C13.4673913,12.1446467 12.1446467,13.4673913 10.5129891,13.4673913 L4.46076087,13.4673913 C2.82910326,13.4673913 1.5063587,12.1446467 1.5063587,10.5129891 L1.5063587,4.46076087 C1.5063587,2.82907609 2.82910326,1.5063587 4.46076087,1.5063587 L10.5129891,1.5063587 C12.1446467,1.5063587 13.4673913,2.82907609 13.4673913,4.46076087 L13.4673913,10.5129891 Z" id="Shape" fill="url(#linearGradient-1)" fill-rule="nonzero"></path>
                    <path d="M7.486875,3.61413043 C5.35144022,3.61413043 3.61413043,5.35144022 3.61413043,7.48684783 C3.61413043,9.62225543 5.35144022,11.3595924 7.486875,11.3595924 C9.62230978,11.3595924 11.3596196,9.62228261 11.3596196,7.48684783 C11.3596196,5.35141304 9.62230978,3.61413043 7.486875,3.61413043 Z M7.486875,9.85326087 C6.17994565,9.85326087 5.12048913,8.79380435 5.12048913,7.486875 C5.12048913,6.17994565 6.17997283,5.12048913 7.486875,5.12048913 C8.79380435,5.12048913 9.85326087,6.17994565 9.85326087,7.486875 C9.85326087,8.79377717 8.79377717,9.85326087 7.486875,9.85326087 Z" id="Shape" fill="url(#linearGradient-2)" fill-rule="nonzero"></path>
                    <circle id="Oval" fill="url(#linearGradient-3)" cx="11.3671196" cy="3.64320652" r="1"></circle>
                </g>
                <g id="behance-logo" transform="translate(51.000000, 2.000000)" fill="#235BF6">
                    <path d="M7.4106,5.35916129 C7.4106,5.35916129 9.14805833,5.22890323 9.14805833,3.17090323 C9.14805833,1.11309677 7.72646667,0.10916129 5.92556667,0.10916129 L2.61088333,0.10916129 L2.51351667,0.10916129 L0,0.10916129 L0,11.6086452 L2.51351667,11.6086452 L2.61088333,11.6086452 L5.92556667,11.6086452 C5.92556667,11.6086452 9.54289167,11.7241935 9.54289167,8.21458065 C9.54308333,8.21458065 9.700825,5.35916129 7.4106,5.35916129 Z M2.61088333,2.15322581 L5.49910833,2.15322581 L5.92575833,2.15322581 C5.92575833,2.15322581 6.73133333,2.15322581 6.73133333,3.34954839 C6.73133333,4.54587097 6.25734167,4.71929032 5.72029167,4.71929032 L2.61088333,4.71929032 L2.61088333,2.15322581 Z M5.77280833,9.56516129 L2.61088333,9.56516129 L2.61088333,6.49180083 L5.92556667,6.49180645 C5.92556667,6.49180645 7.12616667,6.47632258 7.12616667,8.07116129 C7.12616667,9.40103226 6.24814167,9.55180645 5.77280833,9.56516129 Z" id="Shape" fill-rule="nonzero"></path>
                    <rect id="Rectangle" x="11.9178333" y="0.786580645" width="4.69851667" height="1.41619355"></rect>
                    <path d="M14.367525,3.03522581 C9.98827268,3.03522581 9.99215833,7.45316129 9.99215833,7.45316129 C9.99215833,7.45316129 9.69200833,11.8492258 14.3677167,11.8492258 C14.3677167,11.8492258 18.2644917,12.074129 18.2644917,8.79096774 L16.260425,8.79096774 C16.260425,8.79096774 16.3273167,10.0279355 14.4346083,10.0279355 C14.4346083,10.0279355 12.4307333,10.1632258 12.4307333,8.02664516 L18.3311917,8.02664516 C18.3311917,8.02664516 18.976725,3.03522581 14.367525,3.03522581 Z M16.1488821,6.49180645 L12.4081167,6.49180645 C12.4081167,6.49180645 12.652875,4.71929032 14.4119917,4.71929032 C16.1713,4.71909677 16.1488821,6.49180645 16.1488821,6.49180645 Z" id="Shape" fill-rule="nonzero"></path>
                </g>
                <g id="twitter-logo" transform="translate(0.000000, 2.000000)" fill="#4AA0EB">
                    <path d="M14.1418511,1.40982456 C13.8225635,1.55161404 13.4911182,1.66347368 13.151019,1.74445614 C13.5257693,1.38782456 13.8075328,0.941754386 13.9664934,0.443859649 C14.0118657,0.301719298 13.8577051,0.178807018 13.7295416,0.254912281 C13.2564088,0.535964912 12.7467679,0.746807018 12.2147387,0.881649123 C12.1838715,0.889473684 12.1520234,0.893438596 12.1200701,0.893438596 C12.0231591,0.893438596 11.928946,0.857403509 11.8548438,0.792 C11.2887942,0.292385965 10.5607708,0.0172280702 9.80492847,0.0172280702 C9.47786277,0.0172280702 9.1476438,0.0682807018 8.82341606,0.168982456 C7.81884964,0.481017544 7.04373723,1.31087719 6.80054891,2.33473684 C6.70931387,2.71877193 6.68461314,3.10315789 6.72707737,3.47719298 C6.73194745,3.52017544 6.71166131,3.55017544 6.69915328,3.56424561 C6.6771854,3.58891228 6.64603796,3.60305263 6.61369927,3.60305263 C6.61009051,3.60305263 6.60637664,3.60287719 6.60269781,3.60252632 C4.40373723,3.39792982 2.42081168,2.33698246 1.01917664,0.615157895 C0.94770219,0.527333333 0.810639416,0.538105263 0.753670073,0.635964912 C0.479194161,1.10754386 0.334143066,1.64691228 0.334143066,2.19575439 C0.334143066,3.03687719 0.671579562,3.82954386 1.25770511,4.40740351 C1.01122336,4.34887719 0.772659854,4.25670175 0.551054015,4.1334386 C0.443842336,4.07378947 0.311929927,4.15045614 0.310423358,4.27326316 C0.295077372,5.52280702 1.02558832,6.63466667 2.11991825,7.13533333 C2.09788029,7.13585965 2.07584234,7.13610526 2.05376934,7.13610526 C1.88030365,7.13610526 1.70466569,7.11933333 1.53179562,7.08624561 C1.41105985,7.06315789 1.3096292,7.17785965 1.34711825,7.29508772 C1.70231825,8.40564912 2.65713285,9.22424561 3.79974307,9.41010526 C2.85144526,10.047614 1.74712993,10.3838947 0.597757664,10.3838947 L0.239439416,10.3836842 C0.129039416,10.3836842 0.0356671533,10.4557544 0.00753284672,10.5628421 C-0.0201810219,10.6683158 0.0308671533,10.7795789 0.125010219,10.8344211 C1.42016934,11.5892632 2.89748321,11.9882105 4.39788613,11.9882105 C5.7112292,11.9882105 6.93974891,11.727193 8.04935474,11.2124561 C9.06656934,10.7405614 9.96546569,10.066 10.7210628,9.20750877 C11.424946,8.40778947 11.9753693,7.48459649 12.3569869,6.46361404 C12.7207708,5.49038596 12.9130511,4.45192982 12.9130511,3.46049123 L12.9130511,3.41326316 C12.9130161,3.25407018 12.9849109,3.1042807 13.1103416,3.00231579 C13.5863124,2.61529825 14.0007942,2.1597193 14.3422248,1.64824561 C14.4323737,1.51319298 14.2901956,1.34392982 14.1418511,1.40982456 Z" id="Path"></path>
                </g>
            </g>
        </g>
    </g>
</svg>