<?xml version="1.0" encoding="UTF-8"?>
<svg width="277px" height="93px" viewBox="0 0 277 93" version="1.1" xmlns="http://www.w3.org/2000/svg" xmlns:xlink="http://www.w3.org/1999/xlink">
    <!-- Generator: Sketch 52.6 (67491) - http://www.bohemiancoding.com/sketch -->
    <title>software-spritesheet</title>
    <desc>Created with Sketch.</desc>
    <defs>
        <polygon id="path-1" points="0.76754386 0 13.3552632 0 13.9692982 4.9122807 10.8991228 4.9122807 10.8991228 3.07017544 3.37719298 3.07017544 3.37719298 6.29385965 13.9692982 6.44736842 13.3552632 15.6578947 6.90789474 17.6535088 0.460526316 15.6578947 0.153508772 11.0526316 3.37719298 11.0526316 3.37719298 13.3552632 7.06140351 14.4298246 10.5921053 13.3552632 10.5921053 9.51754386 0 9.51754386"></polygon>
        <linearGradient x1="50%" y1="0%" x2="50%" y2="100%" id="linearGradient-3">
            <stop stop-color="#C063D5" offset="0%"></stop>
            <stop stop-color="#5A1AA9" offset="100%"></stop>
        </linearGradient>
        <polygon id="path-4" points="0.00510948905 0.0109854015 34.9890146 0.0109854015 34.9890146 35 0.00510948905 35"></polygon>
    </defs>
    <g id="Page-1" stroke="none" stroke-width="1" fill="none" fill-rule="evenodd">
        <g id="software-spritesheet">
            <g id="Adobe-XD-logo" transform="translate(254.000000, 1.000000)">
                <path d="M13.1666667,16 L2.83333333,16 C1.26666667,16 0,14.7008547 0,13.0940171 L0,2.90598291 C0,1.2991453 1.26666667,0 2.83333333,0 L13.1666667,0 C14.7333333,0 16,1.2991453 16,2.90598291 L16,13.0940171 C16,14.7008547 14.7333333,16 13.1666667,16 Z" id="Path" fill="#FF26BE"></path>
                <path d="M12.9133333,15.3162393 L3.08666667,15.3162393 C1.75333333,15.3162393 0.666666667,14.2017094 0.666666667,12.834188 L0.666666667,3.16581197 C0.666666667,1.7982906 1.75333333,0.683760684 3.08666667,0.683760684 L12.9066667,0.683760684 C14.2466667,0.683760684 15.3266667,1.7982906 15.3266667,3.16581197 L15.3266667,12.8273504 C15.3333333,14.2017094 14.2466667,15.3162393 12.9133333,15.3162393 Z" id="Path" fill="#2E001F"></path>
                <path d="M6.32666667,7.48717949 L8.19333333,11.165812 C8.22666667,11.2205128 8.20666667,11.2752137 8.15333333,11.2752137 L6.99333333,11.2752137 C6.92,11.2752137 6.88666667,11.2547009 6.85333333,11.1863248 C6.42666667,10.2837607 5.99333333,9.38119658 5.54666667,8.41025641 L5.53333333,8.41025641 C5.13333333,9.32649573 4.69333333,10.2905983 4.26666667,11.1931624 C4.23333333,11.2478632 4.2,11.2683761 4.14666667,11.2683761 L3.04666667,11.2683761 C2.98,11.2683761 2.97333333,11.2136752 3.00666667,11.1726496 L4.83333333,7.6034188 L3.06666667,3.99316239 C3.02666667,3.93846154 3.06666667,3.8974359 3.10666667,3.8974359 L4.25333333,3.8974359 C4.32,3.8974359 4.34666667,3.91111111 4.37333333,3.97264957 C4.79333333,4.87521368 5.22,5.80512821 5.62,6.71452991 L5.63333333,6.71452991 C6.02,5.81196581 6.44666667,4.87521368 6.86,3.97948718 C6.89333333,3.92478632 6.91333333,3.89059829 6.98,3.89059829 L8.05333333,3.89059829 C8.10666667,3.89059829 8.12666667,3.93162393 8.09333333,3.98632479 L6.32666667,7.48717949 Z M8.52,8.6017094 C8.52,7.00854701 9.55333333,5.76410256 11.1933333,5.76410256 C11.3333333,5.76410256 11.4066667,5.76410256 11.54,5.77777778 L11.54,3.96581197 C11.54,3.92478632 11.5733333,3.8974359 11.6066667,3.8974359 L12.66,3.8974359 C12.7133333,3.8974359 12.7266667,3.91794872 12.7266667,3.95213675 L12.7266667,10.2290598 C12.7266667,10.4136752 12.7266667,10.6461538 12.76,10.8991453 C12.76,10.9401709 12.7466667,10.9538462 12.7066667,10.974359 C12.1466667,11.2478632 11.56,11.3709402 11,11.3709402 C9.55333333,11.3777778 8.52,10.4615385 8.52,8.6017094 Z M11.54,6.85128205 C11.4466667,6.81025641 11.3133333,6.78290598 11.1533333,6.78290598 C10.3133333,6.78290598 9.72666667,7.44615385 9.72666667,8.54700855 C9.72666667,9.80512821 10.3266667,10.3111111 11.08,10.3111111 C11.24,10.3111111 11.4133333,10.2905983 11.54,10.2358974 L11.54,6.85128205 Z" id="Shape" fill="#FFD9F2" fill-rule="nonzero"></path>
            </g>
            <g id="bootstrap-logo" transform="translate(247.000000, 61.000000)">
                <path d="M0,26.1317842 C0,28.2683759 1.7318592,30 3.86821579,30 L26.1317842,30 C28.2683759,30 30,28.2681408 30,26.1317842 L30,3.86821579 C30,1.73162418 28.2681408,0 26.1317842,0 L3.86821579,0 C1.73162418,0 0,1.7318592 0,3.86821579 L0,26.1317842 Z" id="Path" fill="#563D7C"></path>
                <path d="M12.4403394,13.2700893 L12.4403394,9.02163209 L16.1799994,9.02163209 C16.5361593,9.02163209 16.879594,9.05131164 17.2103139,9.11067162 C17.5410338,9.17003159 17.8335892,9.27602996 18.0879891,9.42866991 C18.3423891,9.58130985 18.5459059,9.79330659 18.6985458,10.0646665 C18.8511858,10.3360264 18.9275046,10.6837011 18.9275046,11.1077009 C18.9275046,11.8709006 18.6985481,12.4220921 18.2406282,12.7612921 C17.7827085,13.1004919 17.1975975,13.2700893 16.4852777,13.2700893 L12.4403394,13.2700893 Z M8.44628086,5.91796875 L8.44628086,24.0820312 L17.2484736,24.0820312 C18.0625533,24.0820312 18.8554212,23.9802728 19.6271009,23.7767529 C20.3987805,23.573233 21.08565,23.2594778 21.6877297,22.8354779 C22.2898096,22.4114781 22.7689222,21.8645265 23.1250821,21.1946067 C23.4812419,20.524687 23.6593192,19.7318191 23.6593192,18.8159795 C23.6593192,17.6796599 23.3837235,16.7087148 22.8325236,15.9031152 C22.2813238,15.0975155 21.4460566,14.5336041 20.3266971,14.2113642 C21.1407768,13.8212844 21.7555673,13.3209721 22.1710871,12.7104123 C22.5866071,12.0998525 22.7943639,11.3366642 22.7943639,10.4208246 C22.7943639,9.57282489 22.654446,8.86051584 22.3746061,8.28387605 C22.0947662,7.70723626 21.7004523,7.24508337 21.1916524,6.89740349 C20.6828527,6.54972362 20.072302,6.29956746 19.3599823,6.14692752 C18.6476625,5.99428758 17.8590347,5.91796875 16.9940749,5.91796875 L8.44628086,5.91796875 Z M12.4403394,20.9783679 L12.4403394,15.9921547 L16.7905561,15.9921547 C17.6555157,15.9921547 18.3508651,16.1914316 18.8766248,16.5899914 C19.4023847,16.9885513 19.6652606,17.6542211 19.6652606,18.5870208 C19.6652606,19.0619006 19.5847018,19.4519746 19.4235819,19.7572545 C19.262462,20.0625343 19.0462253,20.3042106 18.7748654,20.4822906 C18.5035055,20.6603705 18.1897504,20.7875686 17.8335905,20.8638885 C17.4774306,20.9402085 17.1043164,20.9783679 16.7142364,20.9783679 L12.4403394,20.9783679 Z" id="Shape" fill="#FFFFFF" fill-rule="nonzero"></path>
            </g>
            <g id="css-logo" transform="translate(59.000000, 58.000000)">
                <polygon id="polygon2989" fill="#264DE4" points="12.4756849 35 2.32952056 32.1888574 0.0684931644 6.87832031 24.9132877 6.87832031 22.649863 32.1848926"></polygon>
                <polygon id="polygon2991" fill="#2965F1" points="20.7121233 30.573457 22.6463699 8.94783203 12.4908904 8.94783203 12.4908904 32.848252"></polygon>
                <polygon id="polygon2993" fill="#EBEBEB" points="5.25184933 18.3351465 5.53061645 21.4393457 12.4908904 21.4393457 12.4908904 18.3351465"></polygon>
                <polygon id="polygon2995" fill="#EBEBEB" points="4.69171234 12.0520996 4.97445207 15.1563672 12.4908904 15.1563672 12.4908904 12.0520996 12.480137 12.0520996"></polygon>
                <polygon id="polygon2997" fill="#EBEBEB" points="12.4908904 26.3971777 12.4772603 26.4008008 9.01328768 25.4672852 8.79184933 22.9915137 7.10863015 22.9915137 5.66958905 22.9915137 6.10534248 27.8656055 12.4765754 29.6308496 12.4908904 29.6268848"></polygon>
                <polygon id="path2999" fill="#000000" points="5.91554796 0 9.68267125 0 9.68267125 1.57226562 7.49089042 1.57226562 7.49089042 3.14453125 9.68267125 3.14453125 9.68267125 4.71679688 5.91554796 4.71679688"></polygon>
                <polygon id="path3001" fill="#000000" points="10.4360959 0 14.2032192 0 14.2032192 1.3671875 12.0114384 1.3671875 12.0114384 1.640625 14.2032192 1.640625 14.2032192 4.78515625 10.4360959 4.78515625 10.4360959 3.34960938 12.6278767 3.34960938 12.6278767 3.07617188 10.4360959 3.07617188"></polygon>
                <polygon id="path3003" fill="#000000" points="14.9566438 0 18.7237671 0 18.7237671 1.3671875 16.5319863 1.3671875 16.5319863 1.640625 18.7237671 1.640625 18.7237671 4.78515625 14.9566438 4.78515625 14.9566438 3.34960938 17.1484247 3.34960938 17.1484247 3.07617188 14.9566438 3.07617188"></polygon>
                <polygon id="polygon3005" fill="#FFFFFF" points="19.71 18.3351465 20.2715069 12.0520996 12.480137 12.0520996 12.480137 15.1563672 16.8628767 15.1563672 16.579863 18.3351465 12.480137 18.3351465 12.480137 21.4393457 16.310137 21.4393457 15.9491096 25.4653027 12.480137 26.3997754 12.480137 29.6293457 18.8564384 27.8656055 18.9032192 27.3411523 19.6341096 19.1687207"></polygon>
            </g>
            <g id="figma-logo" transform="translate(223.000000, 1.000000)">
                <path d="M2.75,16 C4.268,16 5.5,14.8053333 5.5,13.3333333 L5.5,10.6666667 L2.75,10.6666667 C1.232,10.6666667 0,11.8613333 0,13.3333333 C0,14.8053333 1.232,16 2.75,16 Z" id="path0_fill" fill="#0ACF83"></path>
                <path d="M0,8 C0,6.528 1.232,5.33333333 2.75,5.33333333 L5.5,5.33333333 L5.5,10.6666667 L2.75,10.6666667 C1.232,10.6666667 0,9.472 0,8 Z" id="path1_fill" fill="#A259FF"></path>
                <path d="M0,2.66666667 C0,1.19466667 1.232,0 2.75,0 L5.5,0 L5.5,5.33333333 L2.75,5.33333333 C1.232,5.33333333 0,4.13866667 0,2.66666667 Z" id="path1_fill_1_" fill="#F24E1E"></path>
                <path d="M5.5,0 L8.25,0 C9.768,0 11,1.19466667 11,2.66666667 C11,4.13866667 9.768,5.33333333 8.25,5.33333333 L5.5,5.33333333 L5.5,0 Z" id="path2_fill" fill="#FF7262"></path>
                <path d="M11,8 C11,9.472 9.768,10.6666667 8.25,10.6666667 C6.732,10.6666667 5.5,9.472 5.5,8 C5.5,6.528 6.732,5.33333333 8.25,5.33333333 C9.768,5.33333333 11,6.528 11,8 Z" id="path3_fill" fill="#1ABCFE"></path>
            </g>
            <g id="html-logo" transform="translate(0.000000, 58.000000)">
                <polygon id="polygon3028" fill="#E44D26" points="24.9565247 6.87832031 22.6868819 32.1848926 12.4847527 35 2.31071429 32.1888574 0.0434752747 6.87832031"></polygon>
                <polygon id="polygon3030" fill="#F16529" points="12.5 32.848252 20.7438187 30.573457 22.6833791 8.94783203 12.5 8.94783203"></polygon>
                <polygon id="polygon3032" fill="#EBEBEB" points="8.08791209 15.1563672 12.5 15.1563672 12.5 12.0520996 12.489217 12.0520996 4.6793956 12.0520996 4.7540522 12.8849219 5.5206044 21.4393457 12.5 21.4393457 12.5 18.3351465 8.37293956 18.3351465"></polygon>
                <polygon id="polygon3034" fill="#EBEBEB" points="8.7907967 22.9915137 7.1029533 22.9915137 5.65995879 22.9915137 6.09690934 27.8656055 12.4856456 29.6308496 12.5 29.6268848 12.5 26.3971777 12.4863324 26.4008008 9.01284341 25.4672852"></polygon>
                <polygon id="path3036" fill="#000000" points="2.3614011 0 3.94635989 0 3.94635989 1.55859375 5.39622253 1.55859375 5.39622253 0 6.98125 0 6.98125 4.71980469 5.39629121 4.71980469 5.39629121 3.13933594 3.94642857 3.13933594 3.94642857 4.71980469 2.36146978 4.71980469 2.36146978 0"></polygon>
                <polygon id="path3038" fill="#000000" points="9.06552198 1.56515625 7.67019231 1.56515625 7.67019231 0 12.0465659 0 12.0465659 1.56515625 10.6506181 1.56515625 10.6506181 4.71980469 9.06559066 4.71980469 9.06559066 1.56515625"></polygon>
                <polygon id="path3040" fill="#000000" points="12.7411401 0 14.3938187 0 15.4104396 1.65839844 16.4260302 0 18.0793269 0 18.0793269 4.71980469 16.5008929 4.71980469 16.5008929 2.38041016 15.4104396 4.05856445 15.3831731 4.05856445 14.2919643 2.38041016 14.2919643 4.71980469 12.7411401 4.71980469"></polygon>
                <polygon id="path3042" fill="#000000" points="18.8681319 0 20.4535714 0 20.4535714 3.15970703 22.6824863 3.15970703 22.6824863 4.71980469 18.8681319 4.71980469"></polygon>
                <polygon id="polygon3044" fill="#FFFFFF" points="12.489217 21.4393457 16.329739 21.4393457 15.9677198 25.4653027 12.489217 26.3997754 12.489217 29.6293457 18.8830357 27.8656055 18.9299451 27.3411523 19.6628434 19.1687207 19.7389423 18.3351465 18.898489 18.3351465 12.489217 18.3351465"></polygon>
                <polygon id="polygon3046" fill="#FFFFFF" points="12.489217 15.1487793 12.489217 15.1563672 20.012706 15.1563672 20.012706 15.1563672 20.0227335 15.1563672 20.0853022 14.458623 20.2274038 12.8849219 20.3019918 12.0520996 12.489217 12.0520996 12.489217 13.9801074"></polygon>
            </g>
            <g id="illustrator-logo" transform="translate(187.000000, 1.000000)">
                <polygon id="Path" fill="#261300" points="0.672545561 0.683760684 15.4685479 0.683760684 15.4685479 15.3162393 0.672545561 15.3162393"></polygon>
                <path d="M0,0 L0,16 L16.1410935,16 L16.1410935,0 L0,0 Z M0.672545561,0.683760684 L15.4685479,0.683760684 L15.4685479,15.3162393 L0.672545561,15.3162393 L0.672545561,0.683760684 Z" id="Shape" fill="#FF7C00" fill-rule="nonzero"></path>
                <path d="M5.60230453,9.05982906 L5.07099353,11.1111111 C5.05754262,11.165812 5.03736626,11.1794872 4.9701117,11.1794872 L3.98146972,11.1794872 C3.91421517,11.1794872 3.90076426,11.1589744 3.91421517,11.0769231 L5.82424456,4.28034188 C5.85787184,4.15726496 5.87804821,4.04786325 5.89149912,3.71282051 C5.89149912,3.66495726 5.91167549,3.64444444 5.94530276,3.64444444 L7.35764844,3.64444444 C7.40472663,3.64444444 7.424903,3.65811966 7.43835391,3.71282051 L9.57704879,11.0905983 C9.59049971,11.1452991 9.57704879,11.1794872 9.52324515,11.1794872 L8.40681952,11.1794872 C8.35301587,11.1794872 8.31938859,11.165812 8.30593768,11.1179487 L7.74772487,9.05982906 L5.60230453,9.05982906 Z M7.47198119,7.95213675 C7.28366843,7.19316239 6.83978836,5.53846154 6.67165197,4.73846154 L6.65820106,4.73846154 C6.51696649,5.53846154 6.16051734,6.89230769 5.87804821,7.95213675 L7.47198119,7.95213675 Z M10.4984362,4.15042735 C10.4984362,3.71282051 10.8010817,3.45299145 11.1844327,3.45299145 C11.5946855,3.45299145 11.8704292,3.73333333 11.8704292,4.15042735 C11.8704292,4.6017094 11.5812346,4.84786325 11.1709818,4.84786325 C10.7809053,4.84786325 10.4984362,4.6017094 10.4984362,4.15042735 Z M10.5791417,5.7025641 C10.5791417,5.64786325 10.599318,5.62051282 10.6598471,5.62051282 L11.7157437,5.62051282 C11.7695473,5.62051282 11.7964491,5.64102564 11.7964491,5.7025641 L11.7964491,11.0974359 C11.7964491,11.1521368 11.7829982,11.1794872 11.7157437,11.1794872 L10.6732981,11.1794872 C10.6060435,11.1794872 10.5858671,11.1452991 10.5858671,11.0905983 L10.5858671,5.7025641 L10.5791417,5.7025641 Z" id="Shape" fill="#FF7C00" fill-rule="nonzero"></path>
            </g>
            <g id="javascript-logo" transform="translate(188.000000, 58.000000)">
                <polygon id="Path" fill="#000000" points="9.8245614 0 11.6666667 0 11.6666667 4.9122807 7.6754386 4.9122807 7.6754386 3.07017544 9.8245614 3.07017544"></polygon>
                <polygon id="Path-2" fill="#000000" points="12.8947368 0 16.8859649 0 16.8859649 1.84210526 15.6578947 1.84210526 16.8859649 3.07017544 16.8859649 4.9122807 12.8947368 4.9122807 12.8947368 3.07017544 14.122807 3.07017544 12.8947368 1.84210526"></polygon>
                <polygon id="Path-3" fill="#E5A229" points="0 6.75438596 24.8684211 6.90789474 22.5657895 32.0833333 12.4342105 35 2.30263158 32.0833333"></polygon>
                <polygon id="Path-4" fill="#F0BE22" points="12.2807018 8.90350877 22.4122807 8.90350877 20.5701754 30.3947368 12.2807018 32.8508772"></polygon>
                <g id="Rectangle" transform="translate(5.526316, 11.973684)">
                    <g id="Mask" fill="#FFFFFF">
                        <polygon id="path-1" points="0.76754386 0 13.3552632 0 13.9692982 4.9122807 10.8991228 4.9122807 10.8991228 3.07017544 3.37719298 3.07017544 3.37719298 6.29385965 13.9692982 6.44736842 13.3552632 15.6578947 6.90789474 17.6535088 0.460526316 15.6578947 0.153508772 11.0526316 3.37719298 11.0526316 3.37719298 13.3552632 7.06140351 14.4298246 10.5921053 13.3552632 10.5921053 9.51754386 0 9.51754386"></polygon>
                    </g>
                    <g id="Clipped">
                        <mask id="mask-2" fill="white">
                            <use xlink:href="#path-1"></use>
                        </mask>
                        <g id="path-1"></g>
                        <rect id="Rectangle" fill="#E9E9EA" mask="url(#mask-2)" x="-1.53508772" y="-0.307017544" width="8.28947368" height="19.6491228"></rect>
                    </g>
                </g>
            </g>
            <g id="photoshop-logo" transform="translate(113.000000, 0.000000)">
                <polygon id="Path" fill="#001D26" points="0.672545561 0.683760684 15.4685479 0.683760684 15.4685479 15.3162393 0.672545561 15.3162393"></polygon>
                <path d="M0,0 L0,16 L16.1410935,16 L16.1410935,0 L0,0 Z M0.672545561,0.683760684 L15.4685479,0.683760684 L15.4685479,15.3162393 L0.672545561,15.3162393 L0.672545561,0.683760684 Z M3.90076426,3.74700855 C3.90076426,3.6991453 3.99492063,3.66495726 4.04872428,3.66495726 C4.47915344,3.64444444 5.11807172,3.63076923 5.78389183,3.63076923 C7.64684303,3.63076923 8.37319224,4.67008547 8.37319224,6.0034188 C8.37319224,7.74017094 7.13570841,8.48547009 5.61575544,8.48547009 C5.36018812,8.48547009 5.2727572,8.47179487 5.0911699,8.47179487 L5.0911699,11.0974359 C5.0911699,11.1521368 5.07099353,11.1794872 5.01046443,11.1794872 L3.98146972,11.1794872 C3.92766608,11.1794872 3.90076426,11.1589744 3.90076426,11.0974359 L3.90076426,3.74700855 Z M5.09789536,7.37777778 C5.25258083,7.39145299 5.37363904,7.39145299 5.64265726,7.39145299 C6.42953557,7.39145299 7.16933568,7.11111111 7.16933568,6.02393162 C7.16933568,5.15555556 6.63802469,4.71794872 5.74353909,4.71794872 C5.47452087,4.71794872 5.21895356,4.73162393 5.09789536,4.73846154 L5.09789536,7.37777778 Z M10.8817872,6.56410256 C10.3504762,6.56410256 10.1688889,6.83760684 10.1688889,7.06324786 C10.1688889,7.30940171 10.2899471,7.48034188 11.0028454,7.85641026 C12.0587419,8.37606838 12.3882892,8.87521368 12.3882892,9.60683761 C12.3882892,10.7008547 11.5677837,11.2888889 10.4580835,11.2888889 C9.87296884,11.2888889 9.36855967,11.165812 9.07936508,10.9948718 C9.03228689,10.974359 9.02556143,10.9401709 9.02556143,10.8854701 L9.02556143,9.88034188 C9.02556143,9.81196581 9.05918871,9.79145299 9.1062669,9.82564103 C9.52997061,10.1059829 10.0142034,10.2290598 10.4580835,10.2290598 C10.9893945,10.2290598 11.2113345,10.0034188 11.2113345,9.6957265 C11.2113345,9.44957265 11.056649,9.23076923 10.377378,8.87521368 C9.42236332,8.41025641 9.02556143,7.93846154 9.02556143,7.15213675 C9.02556143,6.27008547 9.70483245,5.53846154 10.8817872,5.53846154 C11.4601764,5.53846154 11.8637037,5.62735043 12.0856437,5.72991453 C12.1394474,5.76410256 12.1528983,5.81880342 12.1528983,5.86666667 L12.1528983,6.8034188 C12.1528983,6.85811966 12.119271,6.89230769 12.0520165,6.87179487 C11.7560964,6.68034188 11.3189418,6.56410256 10.8817872,6.56410256 Z" id="Shape" fill="#00C8FF" fill-rule="nonzero"></path>
            </g>
            <g id="principle-logo" transform="translate(79.000000, 0.000000)">
                <path d="M0.816061272,16.7731789 C1.20813309,16.5848837 1.47849462,16.1866422 1.47849462,15.7258065 C1.47849462,15.0834157 0.953141774,14.5626551 0.305086192,14.5626551 C0.224715732,14.5626551 0.146232492,14.5706646 0.0704045059,14.5859223 L0.0704045059,6.5074591 C0.0704045059,2.92638287 2.99239936,0.0232630273 6.59664368,0.0232630273 L6.65606459,0.0232630273 C10.2763798,0.0232630273 13.1648701,2.95082665 13.0929552,6.5471894 L8.99629511,6.46632397 L8.99857802,6.35215924 L13.0952381,6.43302466 C13.0246149,9.96478664 10.1016074,12.8760856 6.62635413,12.8760856 C5.49486944,12.8760856 4.57761987,11.9647546 4.57761987,10.8405707 C4.57761987,9.71638689 5.49486944,8.80505583 6.62635413,8.80505583 C7.84977586,8.80505583 8.97187678,7.68744968 8.99857802,6.35215924 L13.0952381,6.43302466 L13.0929552,6.5471894 L8.99629511,6.46632397 C9.02262736,5.14948631 7.98151719,4.0942928 6.65606459,4.0942928 L6.59664368,4.0942928 C5.25536211,4.0942928 4.16787302,5.17475711 4.16787302,6.5074591 L4.16787302,15.2023883 C4.16787302,16.3265722 3.25062345,17.2379032 2.11913876,17.2379032 C1.62416441,17.2379032 1.17018769,17.0635041 0.816061272,16.7731789 Z" id="Combined-Shape" fill="url(#linearGradient-3)"></path>
                <g id="Oval-2-Copy" transform="translate(5.000000, 9.000000)">
                    <g id="path-2-link" fill="#000000">
                        <ellipse id="path-2" cx="1.64149172" cy="1.8405707" rx="1.29074927" ry="1.2794665"></ellipse>
                    </g>
                    <g id="path-2-link" fill="#F7F7F7">
                        <ellipse id="path-2" cx="1.64149172" cy="1.8405707" rx="1.29074927" ry="1.2794665"></ellipse>
                    </g>
                </g>
            </g>
            <g id="realtimeboard-logo" transform="translate(149.000000, 0.000000)" fill="#FFD855">
                <polygon id="Rectangle-Copy" points="0 0.230788 17.5562533 0.230788 17.5562533 13.7524226 13.7158228 17.5384803 0 17.5384803"></polygon>
            </g>
            <g id="sass-logo" transform="translate(119.000000, 58.000000)">
                <g id="Group-3">
                    <g id="Fill-1-Clipped">
                        <mask id="mask-5" fill="white">
                            <use xlink:href="#path-4"></use>
                        </mask>
                        <g id="path-1"></g>
                        <path d="M17.4945499,0.0109854015 C27.1565085,0.0109854015 34.9890146,7.84357664 34.9890146,17.5055353 C34.9890146,27.1674939 27.1565085,35 17.4945499,35 C7.83259124,35 0,27.1674939 0,17.5055353 C0,7.84357664 7.83259124,0.0109854015 17.4945499,0.0109854015" id="Fill-1" fill="#BE5F8A" mask="url(#mask-5)"></path>
                    </g>
                </g>
                <path d="M14.0177981,23.3329927 C14.2723358,24.2745012 14.2444039,25.1524818 13.9815207,25.9476034 C13.9523114,26.0359124 13.9201217,26.1232847 13.8852068,26.209635 C13.850292,26.2958151 13.8124818,26.3810584 13.7719465,26.4651946 C13.5691849,26.8858759 13.2971046,27.2796472 12.9638808,27.6431022 C11.9474331,28.7520316 10.5272506,29.1713504 9.91828467,28.8180292 C9.26069343,28.4368613 9.59008516,26.8733577 10.7685888,25.6276642 C12.0364234,24.2873601 13.8605961,23.4256448 13.8605961,23.4256448 L13.8577859,23.4201946 C13.9103285,23.3919221 13.9637226,23.3627981 14.0177981,23.3329927 Z M28.4682847,7.49885645 C27.6760584,4.39177616 22.5241606,3.37038929 17.6481752,5.10259124 C14.7464112,6.13360097 11.6050122,7.75160584 9.34627737,9.8642944 C6.66064477,12.3762895 6.23238443,14.5626399 6.40891727,15.4762165 C7.03159367,18.6997932 11.4484915,20.8068613 13.2642336,22.3701946 L13.2642336,22.3796472 C12.7288443,22.6432117 8.81012165,24.6263747 7.89305353,26.65382 C6.92540146,28.7927372 8.04710462,30.3276277 8.7896837,30.5342214 C11.0905718,31.1743552 13.4516667,30.0229319 14.7205231,28.130292 C15.9450122,26.30382 15.8430779,23.9452798 15.3109246,22.772056 C16.0449878,22.5784063 16.9007421,22.4916302 17.9882968,22.6186861 C21.0571411,22.9771168 21.6592944,24.8933455 21.5441606,25.6951095 C21.4291119,26.497129 20.7854015,26.9380779 20.5702068,27.07118 C20.354927,27.2043674 20.2892701,27.250438 20.3074088,27.3493917 C20.3334672,27.493309 20.4331022,27.487944 20.616618,27.4568613 C20.8691971,27.4142822 22.2280657,26.8045499 22.2861436,25.3242457 C22.360146,23.4448054 20.5590511,21.3424209 17.3699635,21.3973479 C16.0565693,21.42 15.2307056,21.544927 14.6341727,21.7669343 C14.5900608,21.716691 14.5451825,21.6667032 14.4987713,21.6172263 C12.5271898,19.5137348 8.88250608,18.0257664 9.03706813,15.1979197 C9.09327251,14.1698905 9.45059611,11.4627981 16.0403893,8.17918491 C21.4385645,5.4892944 25.76,6.22948905 26.506837,7.86997567 C27.5736131,10.2136131 24.1972628,14.5696229 18.5912165,15.1979197 C16.455365,15.4373844 15.3307664,14.609562 15.0510219,14.3012895 C14.7564599,13.9767518 14.7126034,13.9621046 14.6026642,14.0229927 C14.4234915,14.1222019 14.5370073,14.4087591 14.6026642,14.5795864 C14.77,15.0151703 15.4568856,15.7876399 16.6278954,16.1718735 C17.6579684,16.5099513 20.1657056,16.6956813 23.1984428,15.5226277 C26.5949757,14.2087226 29.2473114,10.5539051 28.4682847,7.49885645 Z" id="Fill-4" fill="#FFFFFE" fill-rule="nonzero"></path>
            </g>
            <g id="sketch-logo" transform="translate(2.000000, 0.000000)">
                <polygon id="Path" fill="#FDB300" points="4.26666669 0.569840317 9.7777778 0 15.2888889 0.569840317 19.5555556 6.17166036 9.7777778 17.3076923 0 6.17166036"></polygon>
                <g id="Group" transform="translate(0.000000, 6.230769)">
                    <polygon id="Path" fill="#EA6C00" points="3.95250536 0 9.75807332 11.0741176 0 0"></polygon>
                    <polygon id="Path" fill="#EA6C00" transform="translate(14.637084, 5.537059) scale(-1, 1) translate(-14.637084, -5.537059) " points="13.7105532 0 19.5161211 11.0741176 9.7580478 0"></polygon>
                    <polygon id="Path" fill="#FDAD00" points="3.95250536 0 15.5636413 0 9.75807332 11.0741176"></polygon>
                </g>
                <g id="Group">
                    <polygon id="Path" fill="#FDD231" points="9.75807332 0 4.25804851 0.574751666 3.95250536 6.22493095"></polygon>
                    <polygon id="Path" fill="#FDD231" transform="translate(12.660827, 3.112465) scale(-1, 1) translate(-12.660827, -3.112465) " points="15.5636107 0 10.0635859 0.574751666 9.7580427 6.22493095"></polygon>
                    <polygon id="Path" fill="#FDAD00" transform="translate(17.387096, 3.399841) scale(-1, 1) translate(-17.387096, -3.399841) " points="15.2580469 6.22493095 19.5161451 0.574751666 19.2105523 6.22493095"></polygon>
                    <polygon id="Path" fill="#FDAD00" points="0 6.22493095 4.25804851 0.574751666 3.95250536 6.22493095"></polygon>
                    <polygon id="Path" fill="#FEEEB7" points="9.75807332 0 3.95250536 6.22493095 15.5636413 6.22493095"></polygon>
                </g>
            </g>
            <g id="invision-logo" transform="translate(42.000000, 0.000000)">
                <rect id="Rectangle" fill="#FF3366" x="0" y="0" width="17.4603175" height="17.3076923" rx="8.65384615"></rect>
                <path d="M5.8352381,5.44569231 C6.41079859,5.43541763 6.87017177,4.96673123 6.86393205,4.39614287 C6.85769234,3.82555452 6.38817759,3.36684924 5.81252765,3.36894459 C5.23687771,3.37103994 4.77077408,3.83315084 4.7687619,4.40376923 C4.76967507,4.68247318 4.88282317,4.94927716 5.08307282,5.14491654 C5.28332248,5.34055591 5.5540928,5.44883152 5.8352381,5.44569231 Z" id="Path" fill="#FFFFFF"></path>
                <path d="M3.62336508,11.0243077 C3.56293364,11.2810678 3.53131314,11.5436617 3.52907937,11.8073077 C3.52907937,12.7246154 4.0312381,13.3338462 5.09771429,13.3338462 C5.98260317,13.3338462 6.69987302,12.8132308 7.216,11.9720769 L6.90101587,13.2265385 L8.66031746,13.2265385 L9.66393651,9.23538462 C9.91466667,8.22461538 10.4007619,7.69984615 11.1382857,7.69984615 C11.7186667,7.69984615 12.079746,8.05776923 12.079746,8.64830769 C12.081561,8.83776593 12.0542422,9.02639225 11.9987302,9.20769231 L11.4812063,11.0423077 C11.4074475,11.2949536 11.3705233,11.5567586 11.3715556,11.8197692 C11.3715556,12.6906923 11.8890794,13.3276154 12.971619,13.3276154 C13.8970159,13.3276154 14.6345397,12.7370769 15.0424127,11.3199231 L14.352381,11.0561538 C14.0073651,12.0039231 13.7091429,12.1756154 13.4737778,12.1756154 C13.2384127,12.1756154 13.1126984,12.0205385 13.1126984,11.7096923 C13.1192272,11.5456441 13.145487,11.3829548 13.1909206,11.2250769 L13.6930794,9.43753846 C13.8056471,9.07122976 13.8637604,8.69061491 13.8655873,8.30769231 C13.8655873,6.97084615 13.0498413,6.273 12.0615873,6.273 C11.1361905,6.273 10.1947302,7.10376923 9.72469841,7.97123077 L10.0697143,6.408 L7.38780952,6.408 L7.01136508,7.785 L8.26850794,7.785 L7.49606349,10.8519231 C6.88914286,12.1887692 5.77447619,12.2109231 5.63479365,12.1797692 C5.40501587,12.1285385 5.25834921,12.0413077 5.25834921,11.7463846 C5.26525165,11.5055882 5.30207975,11.2665541 5.368,11.0346923 L6.54133333,6.40869231 L3.56190476,6.40869231 L3.1847619,7.785 L4.42374603,7.785 L3.62336508,11.0243077 Z" id="Path" fill="#FFFFFF"></path>
            </g>
        </g>
    </g>
</svg>