<?xml version="1.0" encoding="UTF-8"?>
<svg width="11px" height="9px" viewBox="0 0 11 9" version="1.1" xmlns="http://www.w3.org/2000/svg" xmlns:xlink="http://www.w3.org/1999/xlink">
    <!-- Generator: Sketch 52.6 (67491) - http://www.bohemiancoding.com/sketch -->
    <title>“</title>
    <desc>Created with Sketch.</desc>
    <g id="Page-1" stroke="none" stroke-width="1" fill="none" fill-rule="evenodd">
        <g id="About-Me" transform="translate(-549.000000, -1280.000000)" fill="#000000">
            <g id="Group-18" transform="translate(520.000000, 1244.000000)">
                <g id="Group-17" transform="translate(28.517442, 30.000000)">
                    <path d="M5.568,10.464 L5.568,14.928 L1.032,14.928 L1.032,12.144 C1.032,11.1039948 1.21999812,10.1640042 1.596,9.324 C1.97200188,8.4839958 2.60799552,7.60800456 3.504,6.696 L5.136,7.992 C4.2559956,8.92000464 3.71200104,9.7439964 3.504,10.464 L5.568,10.464 Z M10.992,10.464 L10.992,14.928 L6.456,14.928 L6.456,12.144 C6.456,11.1039948 6.64399812,10.1640042 7.02,9.324 C7.39600188,8.4839958 8.03199552,7.60800456 8.928,6.696 L10.56,7.992 C9.6799956,8.92000464 9.13600104,9.7439964 8.928,10.464 L10.992,10.464 Z" id="“"></path>
                </g>
            </g>
        </g>
    </g>
</svg>